<svg xmlns="http://www.w3.org/2000/svg" xmlns:xlink="http://www.w3.org/1999/xlink" viewBox="0 0 67.65 8.6"><defs><style>.cls-1{fill:none;}.cls-2{clip-path:url(#clip-path);}.cls-3{fill:url(#linear-gradient);}</style><clipPath id="clip-path"><path class="cls-1" d="M63.13,0h0l1.4,2.83,3.13.45-2.26,2.2.53,3.11L63.13,7.13,60.33,8.6l.53-3.11L58.6,3.29l3.12-.45Zm-16,2.83h0L44,3.29l2.26,2.2L45.68,8.6l2.8-1.47,2.8,1.47-.53-3.11L53,3.29l-3.12-.45L48.48,0Zm-14.65,0h0l-3.13.45,2.26,2.2L31,8.6l2.8-1.47,2.8,1.47-.53-3.11,2.26-2.2-3.13-.45L33.82,0Zm-14.65,0h0l-3.12.45,2.26,2.2L16.38,8.6l2.8-1.47L22,8.6l-.53-3.11,2.26-2.2-3.13-.45L19.17,0ZM4.52,0l1.4,2.83L9,3.29,6.78,5.49,7.32,8.6,4.52,7.13,1.73,8.6l.53-3.11L0,3.29l3.12-.45Z"/></clipPath><linearGradient id="linear-gradient" x1="-32.16" y1="2.92" x2="76.45" y2="5.2" gradientUnits="userSpaceOnUse"><stop offset="0" stop-color="#88c4ec"/><stop offset="0.5" stop-color="#91afd9"/><stop offset="1" stop-color="#0098db"/></linearGradient></defs><title>5 Star</title><g id="Layer_2" data-name="Layer 2"><g id="Layer_1-2" data-name="Layer 1"><g class="cls-2"><rect class="cls-3" width="67.65" height="8.6"/></g></g></g></svg>