<?xml version="1.0" encoding="UTF-8"?>
<!DOCTYPE svg PUBLIC "-//W3C//DTD SVG 1.1//EN" "http://www.w3.org/Graphics/SVG/1.1/DTD/svg11.dtd">
<!-- Creator: CorelDRAW 2018 (64-Bit) -->
<svg xmlns="http://www.w3.org/2000/svg" xml:space="preserve" width="0.165984in" height="0.165992in" version="1.1" style="shape-rendering:geometricPrecision; text-rendering:geometricPrecision; image-rendering:optimizeQuality; fill-rule:evenodd; clip-rule:evenodd"
viewBox="0 0 8.92 8.92"
 xmlns:xlink="http://www.w3.org/1999/xlink">
 <defs>
  <style type="text/css">
   <![CDATA[
    .fil0 {fill:#0098DB}
   ]]>
  </style>
 </defs>
 <g id="__x0023_Layer_x0020_1">
  <metadata id="CorelCorpID_0Corel-Layer"/>
  <path class="fil0" d="M6.53 5.39l0 1.15 -1.15 0c-0.33,0 -0.24,0.53 -0.24,0.73 0,0.16 0.14,0.26 0.31,0.26l1.08 0 0 1.12c0,0.34 0.47,0.26 0.68,0.26 0.18,0 0.31,-0.13 0.31,-0.31l0 -1.08 1.08 0c0.38,0 0.31,-0.38 0.31,-0.73 0,-0.13 -0.13,-0.26 -0.26,-0.26l-1.12 0 0 -1.12c0,-0.34 -0.47,-0.26 -0.75,-0.26 -0.11,0 -0.24,0.13 -0.24,0.24zm-2.55 2.39c0.29,0.04 0.5,0.31 0.46,0.6 -0.04,0.29 -0.31,0.5 -0.6,0.46 -1.1,-0.15 -2.06,-0.7 -2.74,-1.48 -0.68,-0.78 -1.09,-1.81 -1.09,-2.92 0,-1.23 0.5,-2.34 1.3,-3.14 0.8,-0.8 1.91,-1.3 3.14,-1.3 1.11,0 2.13,0.41 2.91,1.09 0.79,0.68 1.33,1.64 1.49,2.74 0.04,0.29 -0.16,0.56 -0.46,0.6 -0.29,0.04 -0.56,-0.16 -0.6,-0.46 -0.12,-0.83 -0.53,-1.55 -1.13,-2.07 -0.59,-0.52 -1.37,-0.83 -2.21,-0.83 -0.93,0 -1.77,0.38 -2.38,0.99 -0.61,0.61 -0.99,1.45 -0.99,2.38 0,0.84 0.31,1.62 0.83,2.21 0.52,0.6 1.25,1.01 2.08,1.12z"/>
 </g>
</svg>
