<?xml version="1.0" encoding="UTF-8"?>
<!DOCTYPE svg PUBLIC "-//W3C//DTD SVG 1.1//EN" "http://www.w3.org/Graphics/SVG/1.1/DTD/svg11.dtd">
<!-- Creator: CorelDRAW 2018 (64-Bit) -->
<svg xmlns="http://www.w3.org/2000/svg" xml:space="preserve" width="0.178469in" height="0.166669in" version="1.1" style="shape-rendering:geometricPrecision; text-rendering:geometricPrecision; image-rendering:optimizeQuality; fill-rule:evenodd; clip-rule:evenodd"
viewBox="0 0 18.45 17.23"
 xmlns:xlink="http://www.w3.org/1999/xlink">
 <defs>
  <style type="text/css">
   <![CDATA[
    .fil0 {fill:#0098DB}
   ]]>
  </style>
 </defs>
 <g id="__x0023_Layer_x0020_1">
  <metadata id="CorelCorpID_0Corel-Layer"/>
  <path class="fil0" d="M14.25 14.64l-1.33 0c-0.25,0 -0.5,-0.13 -0.5,-0.38l0 -1.56c0,-0.19 0.19,-0.38 0.38,-0.38l1.52 0c0.27,0 0.42,0.22 0.42,0.5l0 1.33c0,0.33 -0.17,0.5 -0.5,0.5zm-14.25 -13.03l0 2.21 18.37 0 0 -2.17c0,-0.84 -1.02,-1.64 -1.91,-1.64l-1.79 0 0 1.79c0,0.65 -1.11,0.64 -1.11,0l0 -1.79 -9.22 0 0 1.79c0,0.65 -1.11,0.64 -1.11,0l0 -1.79 -1.83 0c-0.78,0 -1.41,0.81 -1.41,1.6zm7.81 12.54l0 -1.33c0,-0.31 0.14,-0.5 0.46,-0.5l1.49 0c0.19,0 0.38,0.19 0.38,0.38l0 1.56c0,0.24 -0.21,0.38 -0.46,0.38l-1.37 0c-0.3,0 -0.5,-0.2 -0.5,-0.5zm-4.54 0l0 -1.33c0,-0.28 0.15,-0.5 0.42,-0.5l1.52 0c0.19,0 0.38,0.19 0.38,0.38l0 1.49c0,0.27 -0.25,0.46 -0.53,0.46l-1.33 0c-0.21,0 -0.46,-0.18 -0.46,-0.5zm11.09 -4.69l-1.56 0c-0.19,0 -0.38,-0.19 -0.38,-0.38l0 -1.56c0,-0.21 0.22,-0.38 0.42,-0.38l1.41 0c0.3,0 0.5,0.2 0.5,0.5l0 1.3c0,0.29 -0.1,0.53 -0.38,0.53zm-6.56 -0.5l0 -1.33c0,-0.3 0.2,-0.5 0.5,-0.5l1.33 0c0.28,0 0.5,0.15 0.5,0.42l0 1.49c0,0.29 -0.13,0.42 -0.42,0.42l-1.49 0c-0.27,0 -0.42,-0.22 -0.42,-0.5zm-4.54 0l0 -1.33c0,-0.3 0.2,-0.5 0.5,-0.5l1.33 0c0.25,0 0.5,0.13 0.5,0.38l0 1.45c0,0.26 -0.16,0.5 -0.42,0.5l-1.49 0c-0.27,0 -0.42,-0.22 -0.42,-0.5zm-3.28 6.67c0,0.83 0.63,1.6 1.45,1.6l15.09 0c0.85,0 1.91,-0.74 1.91,-1.79l0 -10.44 -18.45 0 0 10.63z"/>
 </g>
</svg>
