<?xml version="1.0" encoding="UTF-8"?>
<!DOCTYPE svg PUBLIC "-//W3C//DTD SVG 1.1//EN" "http://www.w3.org/Graphics/SVG/1.1/DTD/svg11.dtd">
<!-- Creator: CorelDRAW 2018 (64-Bit) -->
<svg xmlns="http://www.w3.org/2000/svg" xml:space="preserve" width="0.166693in" height="0.166665in" version="1.1" style="shape-rendering:geometricPrecision; text-rendering:geometricPrecision; image-rendering:optimizeQuality; fill-rule:evenodd; clip-rule:evenodd"
viewBox="0 0 9.37 9.37"
 xmlns:xlink="http://www.w3.org/1999/xlink">
 <defs>
  <style type="text/css">
   <![CDATA[
    .fil0 {fill:#0098DB}
   ]]>
  </style>
 </defs>
 <g id="__x0023_Layer_x0020_1">
  <metadata id="CorelCorpID_0Corel-Layer"/>
  <path class="fil0" d="M5.67 7.21c-0.02,-0.11 0.06,-0.48 0.12,-0.61 0.15,-0.35 0.38,-0.6 0.72,-0.76 0.45,-0.23 1.03,-0.19 1.45,0.08 0.49,0.32 0.77,0.93 0.65,1.52 -0.02,0.11 -0.04,0.19 -0.08,0.28 -0.11,0.26 -0.27,0.46 -0.49,0.63 -0.48,0.36 -1.18,0.38 -1.68,0.05 -0.29,-0.19 -0.54,-0.51 -0.62,-0.86 -0.01,-0.05 -0.02,-0.09 -0.03,-0.15l-0.03 -0.18zm-3.38 -7.21l0 0c0.2,0 0.36,0.16 0.36,0.36l0 0.37 1.66 0 0 -0.37c0,-0.2 0.16,-0.36 0.36,-0.36l0 0c0.2,0 0.36,0.16 0.36,0.36l0 0.37 1.66 0 0 -0.37c0,-0.2 0.16,-0.36 0.36,-0.36l0 0c0.2,0 0.36,0.16 0.36,0.36l0 0.37 0.49 0c0.79,0 1.44,0.65 1.44,1.44l0 0.96 0 0.52 0 0.6c0,0.22 -0.18,0.39 -0.39,0.39l0 0c-0.22,0 -0.39,-0.18 -0.39,-0.39l0 -0.6 0 -0.52 0 -1.02c0,-0.36 -0.3,-0.66 -0.66,-0.66l-0.49 0 0 0.37c0,0.2 -0.16,0.36 -0.36,0.36l0 0c-0.2,0 -0.36,-0.16 -0.36,-0.36l0 -0.37 -1.66 0 0 0.37c0,0.2 -0.16,0.36 -0.36,0.36l-0 0c-0.2,0 -0.36,-0.16 -0.36,-0.36l0 -0.37 -1.66 0 0 0.37c0,0.2 -0.16,0.36 -0.36,0.36l0 0c-0.2,0 -0.36,-0.16 -0.36,-0.36l0 -0.37 -0.49 0c-0.36,0 -0.66,0.3 -0.66,0.66l0 5.86c0,0.36 0.3,0.66 0.66,0.66l1.78 0 0.43 0 0.6 0c0.2,0 0.36,0.16 0.36,0.36l0 0c0,0.2 -0.16,0.36 -0.36,0.36l-0.6 0 -0.43 0 -1.79 0c-0.79,0 -1.44,-0.65 -1.44,-1.44l0 -5.75c0,-0.79 0.65,-1.44 1.44,-1.44l0.49 0 0 -0.37c0,-0.2 0.16,-0.36 0.36,-0.36zm4.49 6.39l0 0.79c0,0.19 0.16,0.35 0.35,0.35l0.57 0c0.46,0 0.46,-0.73 0,-0.73l-0.18 0c0,-0.32 0.07,-0.75 -0.38,-0.75 -0.19,0 -0.35,0.16 -0.35,0.35zm-3.28 -2.56c0,0.51 0.73,0.51 0.73,0 0,-0.46 -0.73,-0.46 -0.73,0zm3.18 0c0,0.51 0.73,0.51 0.73,0 0,-0.46 -0.73,-0.46 -0.73,0zm-3.18 1.59c0,0.51 0.73,0.51 0.73,0 0,-0.46 -0.73,-0.46 -0.73,0zm0 1.59c0,0.51 0.73,0.51 0.73,0 0,-0.46 -0.73,-0.46 -0.73,0zm-1.59 -3.18c0,0.51 0.73,0.51 0.73,0 0,-0.46 -0.73,-0.46 -0.73,0zm3.18 0c0,0.51 0.73,0.51 0.73,0 0,-0.46 -0.73,-0.46 -0.73,0zm-3.18 1.59c0,0.51 0.73,0.51 0.73,0 0,-0.46 -0.73,-0.46 -0.73,0zm0 1.59c0,0.51 0.73,0.51 0.73,0 0,-0.46 -0.73,-0.46 -0.73,0zm7.45 0.05l0 0.21c-0.01,0.3 -0.08,0.59 -0.21,0.85 -0.09,0.17 -0.19,0.34 -0.31,0.47 -0.23,0.26 -0.4,0.4 -0.73,0.57 -0.26,0.13 -0.55,0.2 -0.85,0.21l-0.21 0c-0.3,-0.01 -0.6,-0.08 -0.85,-0.21 -0.38,-0.19 -0.6,-0.39 -0.85,-0.72 -0.08,-0.1 -0.13,-0.2 -0.19,-0.32 -0.19,-0.38 -0.21,-0.67 -0.21,-1.09 0,-0.44 0.24,-0.98 0.53,-1.3 0.05,-0.05 0.07,-0.08 0.12,-0.14 0.09,-0.09 0.19,-0.16 0.29,-0.24 0.1,-0.08 0.2,-0.13 0.32,-0.19 0.57,-0.29 1.34,-0.29 1.92,0 0.38,0.19 0.6,0.39 0.85,0.72 0.25,0.33 0.39,0.75 0.41,1.18z"/>
 </g>
</svg>
