<?xml version="1.0" encoding="UTF-8"?>
<!DOCTYPE svg PUBLIC "-//W3C//DTD SVG 1.1//EN" "http://www.w3.org/Graphics/SVG/1.1/DTD/svg11.dtd">
<!-- Creator: CorelDRAW 2018 (64-Bit) -->
<svg xmlns="http://www.w3.org/2000/svg" xml:space="preserve" width="0.189622in" height="0.166665in" version="1.1" style="shape-rendering:geometricPrecision; text-rendering:geometricPrecision; image-rendering:optimizeQuality; fill-rule:evenodd; clip-rule:evenodd"
viewBox="0 0 13.07 11.48"
 xmlns:xlink="http://www.w3.org/1999/xlink">
 <defs>
  <style type="text/css">
   <![CDATA[
    .fil0 {fill:#FEFEFE}
   ]]>
  </style>
 </defs>
 <g id="__x0023_Layer_x0020_1">
  <metadata id="CorelCorpID_0Corel-Layer"/>
  <g id="_1835136625424">
   <path class="fil0" d="M11.43 8.55c0,0.16 0.32,1.07 0.39,1.32 0.05,0.16 0.11,0.29 0.14,0.44 -0.1,-0.02 -0.73,-0.35 -0.88,-0.43 -1.04,-0.52 -0.68,-0.49 -1.37,-0.24 -0.53,0.19 -0.8,0.25 -1.38,0.28 -0.12,0.01 -0.16,0.03 -0.31,0.03 -0.14,-0 -0.16,-0.02 -0.31,-0.03 -1.35,-0.03 -2.84,-0.97 -3.45,-2.19 -0.66,-1.29 -0.48,-2.68 0.38,-3.82 1.14,-1.52 3.48,-2.04 5.19,-1.26 0.8,0.36 1.46,0.86 1.92,1.63 0.72,1.22 0.71,2.57 -0.08,3.81 -0.07,0.11 -0.26,0.31 -0.26,0.45zm1.63 -2.72l0 0.55c-0.04,0.68 -0.25,1.37 -0.65,2.03 -0.03,0.05 -0.14,0.21 -0.14,0.24 0,0.14 0.74,2.24 0.74,2.42 0,0.25 -0.16,0.41 -0.33,0.41 -0.31,0 -0.98,-0.42 -1.3,-0.59 -0.13,-0.07 -1.15,-0.59 -1.2,-0.59l-0.87 0.28c-0.55,0.14 -0.88,0.13 -1.42,0.13 -0.9,0 -1.95,-0.35 -2.65,-0.82 -0.19,-0.13 -0.32,-0.23 -0.5,-0.37 -0.22,-0.18 -0.32,-0.36 -0.48,-0.38 -0.33,-0.06 -0.36,-0.04 -0.72,-0.14l-0.65 -0.22c-0.05,0 -1.07,0.52 -1.2,0.59 -0.1,0.05 -0.18,0.1 -0.3,0.16 -0.17,0.09 -0.81,0.43 -0.9,0.43 -0.25,0 -0.43,-0.12 -0.43,-0.33 0,-0.25 0.29,-1.06 0.37,-1.31 0.07,-0.21 0.12,-0.4 0.19,-0.6 0.25,-0.74 0.21,-0.53 0.01,-0.86 -0.48,-0.81 -0.63,-1.45 -0.63,-2.43 0,-1.42 0.94,-2.85 2.14,-3.6 0.98,-0.61 1.86,-0.81 3.02,-0.81 0.94,0 1.92,0.35 2.66,0.81l0.5 0.37c0.09,0.08 0.14,0.12 0.23,0.2 0.27,0.27 0.18,0.16 0.62,0.25 0.33,0.07 0.69,0.18 0.99,0.31 1.73,0.77 2.8,2.26 2.91,3.89zm-9.95 0.09c0,0.99 0.1,1.47 0.54,2.3 -0.13,-0.03 -0.26,-0.08 -0.38,-0.13 -0.51,-0.21 -0.37,-0.22 -1.06,0.15l-0.66 0.33c-0.12,0.06 -0.34,0.19 -0.45,0.21l0.41 -1.28c0.24,-0.73 0.14,-0.44 -0.31,-1.24 -0.06,-0.1 -0.09,-0.18 -0.14,-0.3 -0.08,-0.19 -0.16,-0.39 -0.2,-0.62 -0.22,-1.12 0.02,-2.07 0.69,-2.96 0.27,-0.36 0.68,-0.72 1.07,-0.95 1.45,-0.86 3.16,-0.9 4.64,-0.06 0.07,0.04 0.21,0.11 0.26,0.18 -0.45,0.01 -1.3,0.28 -1.69,0.48 -0.74,0.37 -1.33,0.83 -1.82,1.47 -0.48,0.64 -0.88,1.58 -0.88,2.41z"/>
   <path class="fil0" d="M6.15 6.07c0,0.64 0.77,0.49 0.77,0.1 0,-0.64 -0.77,-0.49 -0.77,-0.1z"/>
   <path class="fil0" d="M7.68 6.07c0,0.64 0.77,0.49 0.77,0.1 0,-0.64 -0.77,-0.49 -0.77,-0.1z"/>
   <path class="fil0" d="M9.21 6.07c0,0.64 0.77,0.49 0.77,0.1 0,-0.64 -0.77,-0.49 -0.77,-0.1z"/>
  </g>
 </g>
</svg>
