<svg xmlns="http://www.w3.org/2000/svg" viewBox="0 0 22.31 20.21"><defs><style>.cls-1{fill:none;stroke:#fff;stroke-miterlimit:10;stroke-width:0.96px;}</style></defs><title>Docs chat</title><g id="Layer_2" data-name="Layer 2"><g id="Layer_1-2" data-name="Layer 1"><path class="cls-1" d="M11.26.48C5.42.48.69,4.35.69,9.13c0,3.28,2.23,6.13,5.51,7.6,0,0-1,2-2,2.4a10.26,10.26,0,0,0,4.24-1.65,12.81,12.81,0,0,0,2.78.31c5.84,0,10.57-3.87,10.57-8.65S17.1.48,11.26.48Z"/><path class="cls-1" d="M11.44,10.53a1.37,1.37,0,0,0,0-2.74A1.37,1.37,0,0,0,11.44,10.53Z"/><path class="cls-1" d="M6,10.53A1.37,1.37,0,0,0,6,7.79,1.37,1.37,0,0,0,6,10.53Z"/><path class="cls-1" d="M16.93,10.53a1.37,1.37,0,0,0,0-2.74A1.37,1.37,0,0,0,16.93,10.53Z"/></g></g></svg>