<?xml version="1.0" encoding="UTF-8"?>
<!DOCTYPE svg PUBLIC "-//W3C//DTD SVG 1.1//EN" "http://www.w3.org/Graphics/SVG/1.1/DTD/svg11.dtd">
<!-- Creator: CorelDRAW 2018 (64-Bit) -->
<svg xmlns="http://www.w3.org/2000/svg" xml:space="preserve" width="0.181063in" height="0.181063in" version="1.1" style="shape-rendering:geometricPrecision; text-rendering:geometricPrecision; image-rendering:optimizeQuality; fill-rule:evenodd; clip-rule:evenodd"
viewBox="0 0 30.93 30.93"
 xmlns:xlink="http://www.w3.org/1999/xlink">
 <defs>
  <style type="text/css">
   <![CDATA[
    .fil0 {fill:#0098DB}
   ]]>
  </style>
 </defs>
 <g id="__x0023_Layer_x0020_1">
  <metadata id="CorelCorpID_0Corel-Layer"/>
  <g id="_1835136798592">
   <path class="fil0" d="M23.68 3.02c0.59,0 0.94,0.48 1.25,0.8l2.11 2.11c0.21,0.21 0.63,0.56 0.74,0.83 0.3,0.7 -0.04,1.03 -0.47,1.47 -0.25,0.25 -0.6,0.65 -0.86,0.83l-4.58 -4.61c0.16,-0.25 0.54,-0.57 0.79,-0.82 0.23,-0.23 0.55,-0.62 1.01,-0.62zm-0.29 -3.02l0.61 0c0.7,0.05 1.38,0.27 1.98,0.66 0.69,0.46 1.63,1.48 2.22,2.07 0.6,0.6 1.18,1.13 1.73,1.78 0.59,0.7 0.93,1.52 1.01,2.37l0 0.7c-0.05,0.57 -0.22,1.14 -0.52,1.68 -0.46,0.83 -2.47,2.71 -3.24,3.47l-12.29 12.29c-0.2,0.2 -0.34,0.39 -0.59,0.56 -1.08,0.74 -2.38,-0.14 -2.38,-1.11 0,-1.1 0.54,-1.36 1.34,-2.16 1.08,-1.08 10.87,-10.78 11.08,-11.12l-4.64 -4.61 -12.94 12.97c-0.73,0.73 -1.41,1.41 -2.14,2.14 -0.59,0.59 -1.23,1.04 -1.46,1.8 -0.22,0.72 -0.13,3.47 -0.13,4.4l3.52 -0.01c0.76,0.1 1.38,-0.33 1.87,-0.75 1.04,-0.9 2.52,-0.06 2.52,1.01l0 0.3c0,1.26 -2.51,2.48 -3.93,2.48l-5.62 0c-0.7,0 -1.39,-0.69 -1.39,-1.39l0 -5.62c0,-0.79 0.35,-1.8 0.65,-2.31 0.43,-0.71 0.76,-1.07 1.33,-1.63l18.51 -18.51c0.29,-0.29 0.45,-0.43 0.77,-0.68 0.62,-0.47 1.37,-0.73 2.13,-0.78z"/>
   <path class="fil0" d="M14.26 29.42c0,0.74 0.65,1.51 1.39,1.51l13.89 0c0.77,0 1.39,-0.66 1.39,-1.63 0,-0.69 -0.69,-1.39 -1.39,-1.39l-13.89 0c-0.74,0 -1.39,0.77 -1.39,1.51z"/>
  </g>
 </g>
</svg>
