<?xml version="1.0" encoding="UTF-8"?>
<!DOCTYPE svg PUBLIC "-//W3C//DTD SVG 1.1//EN" "http://www.w3.org/Graphics/SVG/1.1/DTD/svg11.dtd">
<!-- Creator: CorelDRAW 2018 (64-Bit) -->
<svg xmlns="http://www.w3.org/2000/svg" xml:space="preserve" width="1.22526in" height="1.08333in" version="1.1" style="shape-rendering:geometricPrecision; text-rendering:geometricPrecision; image-rendering:optimizeQuality; fill-rule:evenodd; clip-rule:evenodd"
viewBox="0 0 1225.28 1083.35"
 xmlns:xlink="http://www.w3.org/1999/xlink">
 <defs>
  <style type="text/css">
   <![CDATA[
    .fil1 {fill:#0098DB;fill-rule:nonzero}
    .fil0 {fill:#88C4EC;fill-rule:nonzero}
    .fil2 {fill:url(#id0);fill-rule:nonzero}
   ]]>
  </style>
  <linearGradient id="id0" gradientUnits="userSpaceOnUse" x1="9.22" y1="216.49" x2="999.98" y2="406.21">
   <stop offset="0" style="stop-opacity:1; stop-color:#88C4EC"/>
   <stop offset="0.501961" style="stop-opacity:1; stop-color:#91AFD9"/>
   <stop offset="1" style="stop-opacity:1; stop-color:#0098DB"/>
  </linearGradient>
 </defs>
 <g id="__x0023_Layer_x0020_1">
  <metadata id="CorelCorpID_0Corel-Layer"/>
  <g id="_1835320774944">
   <polygon class="fil0" points="16.07,989.17 -0,989.17 -0,875.26 16.07,875.26 "/>
   <path id="1" class="fil0" d="M69.13 923.47c-6.54,0 -12.08,2.35 -16.63,7.07 -4.55,4.71 -6.83,11.35 -6.83,19.92 0,8.46 2.28,15.1 6.83,19.92 4.55,4.82 10.15,7.23 16.79,7.23 6.43,0 11.33,-1.61 14.7,-4.82 3.37,-3.22 5.65,-6.91 6.83,-11.09l13.33 5.78c-2.14,6.43 -6.19,12.05 -12.13,16.87 -5.94,4.82 -13.52,7.23 -22.73,7.23 -11.25,0 -20.57,-3.91 -27.96,-11.73 -7.39,-7.82 -11.09,-17.62 -11.09,-29.4 0,-12 3.7,-21.82 11.09,-29.48 7.39,-7.66 16.66,-11.49 27.8,-11.49 9.43,0 17.06,2.41 22.89,7.23 5.84,4.82 9.67,10.6 11.49,17.35l-13.66 5.78c-1.18,-4.5 -3.43,-8.35 -6.75,-11.57 -3.32,-3.21 -7.98,-4.82 -13.98,-4.82z"/>
   <path id="2" class="fil0" d="M130.31 970.78c4.66,4.87 10.36,7.31 17.11,7.31 6.75,0 12.45,-2.44 17.11,-7.31 4.66,-4.87 6.99,-11.65 6.99,-20.32 0,-8.57 -2.33,-15.29 -6.99,-20.16 -4.66,-4.87 -10.36,-7.31 -17.11,-7.31 -6.75,0 -12.45,2.44 -17.11,7.31 -4.66,4.87 -6.99,11.59 -6.99,20.16 0,8.68 2.33,15.45 6.99,20.32zm-11.25 -49.64c7.44,-7.77 16.9,-11.65 28.36,-11.65 11.46,0 20.91,3.88 28.36,11.65 7.44,7.76 11.17,17.54 11.17,29.32 0,11.89 -3.7,21.72 -11.09,29.48 -7.39,7.76 -16.87,11.65 -28.44,11.65 -11.57,0 -21.05,-3.88 -28.44,-11.65 -7.39,-7.77 -11.09,-17.59 -11.09,-29.48 0,-11.78 3.72,-21.56 11.17,-29.32z"/>
   <path id="3" class="fil0" d="M214.62 944.51l0 44.67 -15.1 0 0 -77.28 14.78 0 0 11.09c5.14,-8.89 13.07,-13.33 23.78,-13.33 8.89,0 15.72,2.84 20.48,8.52 4.76,5.68 7.15,13.01 7.15,22.01l0 49 -15.1 0 0 -46.43c0,-12.96 -6,-19.44 -18,-19.44 -5.68,0 -10.09,2.01 -13.26,6.02 -3.16,4.02 -4.74,9.08 -4.74,15.18z"/>
   <polygon id="4" class="fil1" points="418.66,989.17 418.66,875.26 393.11,875.26 393.11,919.93 347.65,919.93 347.65,875.26 322.26,875.26 322.26,989.17 347.65,989.17 347.65,943.87 393.11,943.87 393.11,989.17 "/>
   <path id="5" class="fil1" d="M470.86 969.09c-9.16,0 -17.99,-6.59 -17.99,-19.92 0,-13.5 8.83,-19.76 17.99,-19.76 9.32,0 18,6.27 18,19.76 0,13.5 -8.68,19.92 -18,19.92zm0 -62.18c-23.78,0 -42.41,17.51 -42.41,42.26 0,24.74 18.64,42.41 42.41,42.41 23.94,0 42.42,-17.67 42.42,-42.41 0,-24.74 -18.48,-42.26 -42.42,-42.26z"/>
   <path id="6" class="fil1" d="M546.85 989.17l0 -45.95c0,-7.23 4.66,-13.82 13.17,-13.82 8.84,0 12.85,5.94 12.85,13.5l0 46.27 24.1 0 0 -46.11c0,-7.07 4.66,-13.66 13.33,-13.66 8.67,0 12.69,5.94 12.69,13.5l0 46.27 23.62 0 0 -51.73c0,-21.69 -14.46,-30.53 -29.56,-30.53 -10.76,0 -18.47,3.54 -24.74,12.53 -4.02,-7.87 -12.21,-12.53 -23.62,-12.53 -8.68,0 -18.96,4.5 -22.98,11.57l0 -9.16 -23.3 0 0 79.85 24.42 0z"/>
   <path id="7" class="fil1" d="M679.07 939.69c0.48,-5.94 5.62,-13.5 15.91,-13.5 11.57,0 15.74,7.39 16.07,13.5l-31.97 0zm33.74 20.72c-2.25,6.27 -7.23,10.44 -16.07,10.44 -9.48,0 -17.67,-6.43 -18.15,-15.43l55.59 0c0.16,-0.48 0.48,-4.18 0.48,-7.55 0,-25.7 -15.26,-40.97 -40.01,-40.97 -20.72,0 -39.84,16.39 -39.84,42.09 0,26.83 19.6,42.58 41.61,42.58 20.24,0 32.94,-11.57 36.79,-25.39l-20.4 -5.78z"/>
   <polygon id="8" class="fil1" points="881.34,989.17 881.34,875.26 855.79,875.26 855.79,919.93 810.32,919.93 810.32,875.26 784.94,875.26 784.94,989.17 810.32,989.17 810.32,943.87 855.79,943.87 855.79,989.17 "/>
   <path id="9" class="fil1" d="M915.39 939.69c0.48,-5.94 5.62,-13.5 15.91,-13.5 11.57,0 15.74,7.39 16.07,13.5l-31.97 0zm33.74 20.72c-2.25,6.27 -7.23,10.44 -16.07,10.44 -9.48,0 -17.67,-6.43 -18.15,-15.43l55.59 0c0.16,-0.48 0.48,-4.18 0.48,-7.55 0,-25.7 -15.26,-40.97 -40.01,-40.97 -20.72,0 -39.84,16.39 -39.84,42.09 0,26.83 19.6,42.58 41.61,42.58 20.24,0 32.94,-11.57 36.79,-25.39l-20.4 -5.78z"/>
   <path id="10" class="fil1" d="M975.31 967.16c0,12.69 10.12,24.26 27.63,24.26 10.6,0 18.32,-4.5 22.49,-11.24 0,5.46 0.64,8.35 0.8,9l22.01 0c-0.16,-0.8 -0.96,-6.11 -0.96,-12.37l0 -39.04c0,-16.39 -9.48,-30.85 -35.35,-30.85 -23.46,0 -34.06,15.1 -35.02,26.51l21.21 4.33c0.48,-5.94 5.14,-11.73 13.65,-11.73 7.71,0 11.73,4.02 11.73,8.68 0,2.73 -1.44,4.82 -5.78,5.46l-18.8 2.89c-13.18,1.93 -23.62,9.96 -23.62,24.1l0 0zm33.58 6.59c-6.75,0 -9.48,-4.02 -9.48,-8.19 0,-5.62 3.85,-8.03 9,-8.83l15.1 -2.41 0 3.53c0,12.37 -7.39,15.91 -14.62,15.91z"/>
   <polygon id="11" class="fil1" points="1085.68,989.17 1085.68,872.85 1061.25,872.85 1061.25,989.17 "/>
   <path id="12" class="fil1" d="M1129.85 886.03l-21.85 0 0 10.28c0,7.39 -4.02,13.01 -12.37,13.01l-4.02 0 0 21.37 14.14 0 0 34.22c0,15.91 10.12,25.7 26.67,25.7 7.71,0 11.73,-1.77 12.69,-2.25l0 -20.24c-1.44,0.32 -3.85,0.8 -6.43,0.8 -5.3,0 -8.84,-1.77 -8.84,-8.35l0 -29.88 15.59 0 0 -21.37 -15.59 0 0 -23.3z"/>
   <path id="13" class="fil1" d="M1174.67 942.26c0.48,-7.39 5.46,-12.85 13.17,-12.85 8.84,0 13.02,5.94 13.02,13.82l0 45.95 24.42 0 0 -50.13c0,-17.51 -9.32,-31.81 -30.2,-31.81 -7.07,0 -15.43,2.25 -20.41,7.23l0 -41.61 -24.42 0 0 116.32 24.42 0 0 -46.91z"/>
   <path class="fil0" d="M55.15 1063.46l7.19 0c2.13,0 3.81,-0.55 5.06,-1.64 1.25,-1.1 1.87,-2.57 1.87,-4.43 0,-1.89 -0.62,-3.4 -1.87,-4.53 -1.25,-1.13 -2.93,-1.69 -5.06,-1.69l-7.19 0 0 12.29zm8.09 4.45l-8.09 0 0 14.67 -4.96 0 0 -35.87 13.05 0c3.27,0 5.94,1.01 8,3.04 2.06,2.02 3.09,4.55 3.09,7.59 0,3.07 -1.03,5.6 -3.09,7.59 -2.06,1.99 -4.72,2.98 -8,2.98z"/>
   <path id="1" class="fil0" d="M111.56 1082.59l-3.89 -10.02 -15.89 0 -3.8 10.02 -5.31 0 14.26 -35.87 5.72 0 14.27 35.87 -5.37 0zm-11.89 -30.71l-6.12 16.09 12.35 0 -6.22 -16.09z"/>
   <polygon id="2" class="fil0" points="149.92,1051.32 137.93,1051.32 137.93,1082.59 132.97,1082.59 132.97,1051.32 120.98,1051.32 120.98,1046.71 149.92,1046.71 "/>
   <polygon id="3" class="fil0" points="189.54,1082.59 184.58,1082.59 184.58,1066.65 166.27,1066.65 166.27,1082.59 161.31,1082.59 161.31,1046.71 166.27,1046.71 166.27,1062.04 184.58,1062.04 184.58,1046.71 189.54,1046.71 "/>
   <polygon id="4" class="fil0" points="237.6,1075.1 245.35,1046.71 250.46,1046.71 240.24,1082.59 235.13,1082.59 225.77,1053.49 216.51,1082.59 211.55,1082.59 201.18,1046.71 206.29,1046.71 214.18,1074.79 223.19,1046.71 228.4,1046.71 "/>
   <path id="5" class="fil0" d="M284.66 1082.59l-3.89 -10.02 -15.89 0 -3.8 10.02 -5.31 0 14.26 -35.87 5.72 0 14.27 35.87 -5.37 0zm-11.89 -30.71l-6.12 16.09 12.35 0 -6.22 -16.09z"/>
   <polygon id="6" class="fil0" points="306.72,1067.25 294.08,1046.71 300.05,1046.71 309.36,1062.7 318.66,1046.71 324.33,1046.71 311.68,1067.25 311.68,1082.59 306.72,1082.59 "/>
   <polygon id="7" class="fil0" points="384.52,1051.32 372.53,1051.32 372.53,1082.59 367.57,1082.59 367.57,1051.32 355.58,1051.32 355.58,1046.71 384.52,1046.71 "/>
   <path id="8" class="fil0" d="M401.22 1054.23c-2.53,2.48 -3.8,5.94 -3.8,10.4 0,4.45 1.27,7.93 3.8,10.42 2.53,2.5 5.58,3.74 9.16,3.74 3.57,0 6.63,-1.25 9.16,-3.74 2.53,-2.5 3.8,-5.97 3.8,-10.42 0,-4.45 -1.26,-7.92 -3.8,-10.4 -2.53,-2.48 -5.58,-3.72 -9.16,-3.72 -3.57,0 -6.63,1.24 -9.16,3.72zm-8.85 10.4c0,-2.9 0.52,-5.55 1.54,-7.94 1.03,-2.39 2.4,-4.36 4.1,-5.89 1.7,-1.54 3.62,-2.72 5.74,-3.57 2.13,-0.84 4.33,-1.26 6.63,-1.26 2.3,0 4.5,0.42 6.63,1.26 2.12,0.84 4.04,2.03 5.74,3.57 1.7,1.54 3.07,3.5 4.1,5.89 1.03,2.4 1.54,5.04 1.54,7.94 0,3.85 -0.89,7.22 -2.65,10.12 -1.77,2.9 -4.01,5.06 -6.7,6.48 -2.7,1.42 -5.58,2.13 -8.65,2.13 -3.07,0 -5.95,-0.71 -8.65,-2.13 -2.7,-1.42 -4.93,-3.57 -6.7,-6.48 -1.77,-2.9 -2.66,-6.27 -2.66,-10.12z"/>
   <polygon id="9" class="fil0" points="493.68,1082.59 488.73,1082.59 488.73,1066.65 470.41,1066.65 470.41,1082.59 465.45,1082.59 465.45,1046.71 470.41,1046.71 470.41,1062.04 488.73,1062.04 488.73,1046.71 493.68,1046.71 "/>
   <polygon id="10" class="fil0" points="530.92,1082.59 509.12,1082.59 509.12,1046.71 530.92,1046.71 530.92,1051.32 514.08,1051.32 514.08,1062.35 529.36,1062.35 529.36,1067 514.08,1067 514.08,1077.98 530.92,1077.98 "/>
   <path id="11" class="fil0" d="M569.68 1082.59l-3.89 -10.02 -15.89 0 -3.8 10.02 -5.31 0 14.26 -35.87 5.72 0 14.27 35.87 -5.37 0zm-11.89 -30.71l-6.12 16.09 12.35 0 -6.22 -16.09z"/>
   <polygon id="12" class="fil0" points="608.34,1082.59 586.43,1082.59 586.43,1046.71 591.39,1046.71 591.39,1077.93 608.34,1077.93 "/>
   <polygon id="13" class="fil0" points="641.83,1051.32 629.84,1051.32 629.84,1082.59 624.88,1082.59 624.88,1051.32 612.9,1051.32 612.9,1046.71 641.83,1046.71 "/>
   <polygon id="14" class="fil0" points="681.45,1082.59 676.49,1082.59 676.49,1066.65 658.18,1066.65 658.18,1082.59 653.22,1082.59 653.22,1046.71 658.18,1046.71 658.18,1062.04 676.49,1062.04 676.49,1046.71 681.45,1046.71 "/>
   <path id="15" class="fil0" d="M745.64 1082.59l-3.89 -10.02 -15.89 0 -3.8 10.02 -5.31 0 14.26 -35.87 5.72 0 14.27 35.87 -5.37 0zm-11.89 -30.71l-6.12 16.09 12.35 0 -6.22 -16.09z"/>
   <polygon id="16" class="fil0" points="791.89,1082.59 786.72,1082.59 767.35,1053.34 767.35,1082.59 762.39,1082.59 762.39,1046.71 769.02,1046.71 786.92,1074.24 786.92,1046.71 791.89,1046.71 "/>
   <path id="17" class="fil0" d="M812.28 1078.18l7.33 0c3.51,0 6.42,-1.17 8.73,-3.49 2.31,-2.33 3.46,-5.65 3.46,-9.96 0,-4.35 -1.14,-7.71 -3.41,-10.07 -2.28,-2.36 -5.17,-3.54 -8.68,-3.54l-7.44 0 0 27.07zm7.49 4.4l-12.45 0 0 -35.87 12.55 0c4.82,0 8.87,1.59 12.14,4.78 3.27,3.19 4.91,7.6 4.91,13.23 0,5.6 -1.65,9.97 -4.96,13.13 -3.31,3.15 -7.37,4.73 -12.19,4.73z"/>
   <polygon id="18" class="fil0" points="906.61,1075.1 914.36,1046.71 919.47,1046.71 909.24,1082.59 904.13,1082.59 894.77,1053.49 885.52,1082.59 880.56,1082.59 870.19,1046.71 875.3,1046.71 883.19,1074.79 892.19,1046.71 897.41,1046.71 "/>
   <polygon id="19" class="fil0" points="952.91,1082.59 931.1,1082.59 931.1,1046.71 952.91,1046.71 952.91,1051.32 936.06,1051.32 936.06,1062.35 951.34,1062.35 951.34,1067 936.06,1067 936.06,1077.98 952.91,1077.98 "/>
   <polygon id="20" class="fil0" points="988.73,1082.59 966.82,1082.59 966.82,1046.71 971.78,1046.71 971.78,1077.93 988.73,1077.93 "/>
   <polygon id="21" class="fil0" points="1022.78,1082.59 1000.88,1082.59 1000.88,1046.71 1005.83,1046.71 1005.83,1077.93 1022.78,1077.93 "/>
   <polygon id="22" class="fil0" points="1064.42,1082.59 1059.26,1082.59 1039.88,1053.34 1039.88,1082.59 1034.93,1082.59 1034.93,1046.71 1041.55,1046.71 1059.46,1074.24 1059.46,1046.71 1064.42,1046.71 "/>
   <polygon id="23" class="fil0" points="1101.66,1082.59 1079.86,1082.59 1079.86,1046.71 1101.66,1046.71 1101.66,1051.32 1084.81,1051.32 1084.81,1062.35 1100.09,1062.35 1100.09,1067 1084.81,1067 1084.81,1077.98 1101.66,1077.98 "/>
   <path id="24" class="fil0" d="M1138.44 1054.86l-4.45 1.57c-0.24,-1.55 -0.99,-2.96 -2.28,-4.22 -1.28,-1.26 -3.05,-1.9 -5.31,-1.9 -1.99,0 -3.65,0.57 -4.96,1.72 -1.31,1.15 -1.97,2.56 -1.97,4.25 0,1.32 0.4,2.43 1.19,3.34 0.79,0.91 1.93,1.53 3.42,1.87l5.36 1.17c2.97,0.64 5.26,1.85 6.88,3.62 1.62,1.77 2.43,3.92 2.43,6.45 0,2.9 -1.15,5.4 -3.44,7.49 -2.29,2.09 -5.28,3.14 -8.95,3.14 -4.02,0 -7.16,-1.06 -9.44,-3.16 -2.28,-2.11 -3.6,-4.61 -3.97,-7.52l4.76 -1.52c0.2,2.16 1.05,3.98 2.53,5.46 1.48,1.48 3.51,2.22 6.07,2.22 2.36,0 4.18,-0.54 5.46,-1.62 1.28,-1.08 1.92,-2.44 1.92,-4.1 0,-1.35 -0.45,-2.52 -1.37,-3.52 -0.91,-1 -2.24,-1.68 -4,-2.05l-5.11 -1.11c-2.67,-0.57 -4.79,-1.7 -6.37,-3.39 -1.59,-1.69 -2.38,-3.83 -2.38,-6.43 0,-2.83 1.15,-5.32 3.46,-7.46 2.31,-2.14 5.1,-3.21 8.37,-3.21 3.68,0 6.49,0.89 8.45,2.68 1.96,1.79 3.19,3.86 3.69,6.22z"/>
   <path id="25" class="fil0" d="M1174.78 1054.86l-4.45 1.57c-0.24,-1.55 -0.99,-2.96 -2.28,-4.22 -1.28,-1.26 -3.05,-1.9 -5.31,-1.9 -1.99,0 -3.65,0.57 -4.96,1.72 -1.31,1.15 -1.97,2.56 -1.97,4.25 0,1.32 0.4,2.43 1.19,3.34 0.79,0.91 1.93,1.53 3.42,1.87l5.36 1.17c2.97,0.64 5.26,1.85 6.88,3.62 1.62,1.77 2.43,3.92 2.43,6.45 0,2.9 -1.15,5.4 -3.44,7.49 -2.29,2.09 -5.28,3.14 -8.95,3.14 -4.02,0 -7.16,-1.06 -9.44,-3.16 -2.28,-2.11 -3.6,-4.61 -3.97,-7.52l4.76 -1.52c0.2,2.16 1.05,3.98 2.53,5.46 1.48,1.48 3.51,2.22 6.07,2.22 2.36,0 4.18,-0.54 5.46,-1.62 1.28,-1.08 1.92,-2.44 1.92,-4.1 0,-1.35 -0.45,-2.52 -1.37,-3.52 -0.91,-1 -2.24,-1.68 -4,-2.05l-5.11 -1.11c-2.67,-0.57 -4.79,-1.7 -6.37,-3.39 -1.59,-1.69 -2.38,-3.83 -2.38,-6.43 0,-2.83 1.15,-5.32 3.46,-7.46 2.31,-2.14 5.1,-3.21 8.37,-3.21 3.68,0 6.49,0.89 8.45,2.68 1.96,1.79 3.19,3.86 3.69,6.22z"/>
   <path class="fil2" d="M563.91 716.7l66.82 0 0 -0 112.32 0c48.61,0 92.76,-19.85 124.75,-51.85 32,-31.99 51.85,-76.15 51.85,-124.75l0 -214.52 0 -70.71 0 -15.28 -254.59 -207.88 -47.34 47.34 235.11 191.97 0 269.08c0,30.16 -12.36,57.6 -32.27,77.5 -19.91,19.91 -47.35,32.27 -77.51,32.27l-112.32 0 0 -43.86c0,-18.38 -15.04,-33.41 -33.4,-33.41l-0.01 -0c-18.37,0 -33.41,15.04 -33.41,33.41l0 43.86 0 66.82zm83.55 -682.42l-16.29 16.3 -2.38 2.38 -23.66 23.65 -2.38 2.38 -2.38 -2.38 -23.65 -23.65 -2.38 -2.38 -16.3 -16.29c-3.9,-3.9 -5.86,-9.07 -5.86,-14.2 0,-5.14 1.96,-10.3 5.86,-14.21 3.91,-3.91 9.07,-5.85 14.21,-5.86 5.14,0.01 10.3,1.96 14.2,5.86l16.29 16.29 16.3 -16.29c3.91,-3.91 9.06,-5.86 14.2,-5.87 5.15,0 10.31,1.96 14.21,5.87 3.91,3.91 5.86,9.06 5.86,14.2 -0,5.15 -1.95,10.3 -5.86,14.21zm10.27 416.32c0,0 43.28,-136.94 185.79,-59.67 0,0 -26.75,10.05 -53.3,42.6 -26.54,32.57 -59.78,53.39 -121.31,31.22 0,0 55.87,-54.94 95,-62.09 0,0 -49.3,-0.47 -106.17,47.93zm-30.98 -145.01c0,23.8 -19.3,43.09 -43.09,43.09 -23.8,0 -43.08,-19.29 -43.08,-43.09 0,-23.79 19.28,-43.08 43.08,-43.08 23.8,0 43.09,19.29 43.09,43.08zm173.05 -1.09c-91.64,-39.6 -180.08,60.9 -254.92,94.75 -74.82,33.84 -150.78,-22.11 -150.78,-22.11 57.02,87.97 125.37,87.09 184,60.7 -8.31,46.77 -42.35,161.35 -179.91,233.12 0,0 173.86,-38.1 251.62,-278.81 19.98,-16.04 36.26,-31.48 47.01,-40.96 46.41,-40.81 102.97,-46.69 102.97,-46.69zm-167.81 167.12c0,0 -8.52,26.81 -24.1,51.06 0,0 82.22,-31.19 38.82,79.87 0,0 127.25,-112.98 -14.72,-130.94zm-124.25 -99.3c0,0 -8.61,-110.36 -129.08,-77.18 0,0 18.33,12.21 32.6,41.28 14.25,29.07 35.56,50.5 85.63,44.58 0,0 -32.36,-50.99 -60.5,-63.17 0,0 37.09,8.24 71.35,54.48zm32.69 -340.61l-237.91 194.26 47.34 47.34 237.91 -194.26 -47.34 -47.34z"/>
  </g>
 </g>
</svg>
