<svg xmlns="http://www.w3.org/2000/svg" viewBox="0 0 128.4 30.71"><defs><style>.cls-1{fill:#fff;}</style></defs><title>IHH_Logo</title><g id="Layer_2" data-name="Layer 2"><g id="Layer_1-2" data-name="Layer 1"><rect class="cls-1" x="33.77" y="11" width="1.24" height="8.8"/><path class="cls-1" d="M39.11,14.72a1.72,1.72,0,0,0-1.28.55,2.12,2.12,0,0,0-.53,1.54,2.15,2.15,0,0,0,.53,1.54,1.71,1.71,0,0,0,1.3.56,1.58,1.58,0,0,0,1.14-.37,1.87,1.87,0,0,0,.53-.86l1,.45a2.82,2.82,0,0,1-.94,1.3,2.7,2.7,0,0,1-1.76.56A2.84,2.84,0,0,1,37,19.08a3.18,3.18,0,0,1-.86-2.27A3.14,3.14,0,0,1,37,14.53a2.86,2.86,0,0,1,2.15-.89,2.69,2.69,0,0,1,1.77.56,2.59,2.59,0,0,1,.89,1.34L40.71,16a1.89,1.89,0,0,0-.52-.89,1.49,1.49,0,0,0-1.08-.37"/><path class="cls-1" d="M43,14.54a3.12,3.12,0,0,1,4.38,0,3.14,3.14,0,0,1,.86,2.26,3.17,3.17,0,0,1-.86,2.28,3.13,3.13,0,0,1-4.39,0,3.17,3.17,0,0,1-.86-2.28A3.14,3.14,0,0,1,43,14.54m.87,3.83a1.83,1.83,0,0,0,2.64,0A2.18,2.18,0,0,0,47,16.81a2.16,2.16,0,0,0-.54-1.56,1.83,1.83,0,0,0-2.64,0,2.16,2.16,0,0,0-.54,1.56A2.18,2.18,0,0,0,43.84,18.38Z"/><path class="cls-1" d="M50.35,16.35V19.8H49.18v-6h1.14v.86a2,2,0,0,1,1.84-1,2,2,0,0,1,1.58.66,2.55,2.55,0,0,1,.55,1.7V19.8H53.13V16.21q0-1.5-1.39-1.5a1.23,1.23,0,0,0-1,.47,1.84,1.84,0,0,0-.37,1.17"/><polygon class="cls-1" points="66.1 19.8 66.1 11 64.13 11 64.13 14.45 60.62 14.45 60.62 11 58.66 11 58.66 19.8 60.62 19.8 60.62 16.3 64.13 16.3 64.13 19.8 66.1 19.8"/><path class="cls-1" d="M70.14,13.44a3.27,3.27,0,1,0,3.28,3.26,3.19,3.19,0,0,0-3.28-3.26m0,4.8a1.4,1.4,0,0,1-1.39-1.54,1.4,1.4,0,1,1,2.78,0A1.38,1.38,0,0,1,70.14,18.25Z"/><path class="cls-1" d="M76,19.8V16.25a1,1,0,0,1,1-1.07.94.94,0,0,1,1,1V19.8h1.86V16.24a1,1,0,0,1,1-1.05.93.93,0,0,1,1,1V19.8h1.82v-4a2.16,2.16,0,0,0-2.28-2.36,2.11,2.11,0,0,0-1.91,1,1.91,1.91,0,0,0-1.82-1,2.15,2.15,0,0,0-1.77.89v-.71h-1.8V19.8Z"/><path class="cls-1" d="M88.82,17.58a1.19,1.19,0,0,1-1.24.81,1.33,1.33,0,0,1-1.4-1.19h4.29a3.91,3.91,0,0,0,0-.58,2.88,2.88,0,0,0-3.09-3.16,3.11,3.11,0,0,0-3.08,3.25A3.14,3.14,0,0,0,87.56,20a2.77,2.77,0,0,0,2.84-2ZM86.22,16a1.17,1.17,0,0,1,1.23-1,1.11,1.11,0,0,1,1.24,1Z"/><polygon class="cls-1" points="101.84 19.8 101.84 11 99.86 11 99.86 14.45 96.35 14.45 96.35 11 94.39 11 94.39 19.8 96.35 19.8 96.35 16.3 99.86 16.3 99.86 19.8 101.84 19.8"/><path class="cls-1" d="M107.07,17.58a1.19,1.19,0,0,1-1.24.81,1.33,1.33,0,0,1-1.4-1.19h4.29a3.91,3.91,0,0,0,0-.58,2.88,2.88,0,0,0-3.09-3.16,3.11,3.11,0,0,0-3.08,3.25A3.14,3.14,0,0,0,105.81,20a2.77,2.77,0,0,0,2.84-2ZM104.47,16a1.17,1.17,0,0,1,1.23-1,1.11,1.11,0,0,1,1.24,1Z"/><path class="cls-1" d="M111.69,18.61c-.52,0-.73-.31-.73-.63s.3-.62.7-.68l1.17-.19v.27c0,1-.57,1.23-1.13,1.23m-2.59-.51a2.16,2.16,0,0,0,3.87,1,3,3,0,0,0,.06.69h1.7a6,6,0,0,1-.07-1v-3c0-1.27-.73-2.38-2.73-2.38a2.46,2.46,0,0,0-2.71,2l1.64.34a1,1,0,0,1,1.05-.91c.6,0,.91.31.91.67s-.11.37-.45.42l-1.45.22A1.89,1.89,0,0,0,109.09,18.1Z"/><rect class="cls-1" x="115.73" y="10.81" width="1.89" height="8.98"/><path class="cls-1" d="M121,11.83h-1.69v.79a.91.91,0,0,1-1,1h-.31v1.65h1.09v2.64a1.87,1.87,0,0,0,2.06,2,2.25,2.25,0,0,0,1-.17V18.17a2.34,2.34,0,0,1-.5.06c-.41,0-.68-.14-.68-.65V15.28h1.2V13.63H121Z"/><path class="cls-1" d="M124.49,16.17a1,1,0,0,1,1-1,1,1,0,0,1,1,1.07V19.8h1.89V15.93a2.21,2.21,0,0,0-2.33-2.46,2.32,2.32,0,0,0-1.58.56V10.81h-1.89v9h1.89Z"/><path class="cls-1" d="M34.78,25.88h-.62V27h-.38V24.24h1a.84.84,0,0,1,.62.23.84.84,0,0,1,0,1.17.85.85,0,0,1-.62.23m-.62-.34h.55a.57.57,0,0,0,.39-.13.43.43,0,0,0,.14-.34.45.45,0,0,0-.14-.35.56.56,0,0,0-.39-.13h-.55Z"/><path class="cls-1" d="M37.59,24.64l-.47,1.24h1ZM38.51,27l-.3-.77H37l-.29.77h-.41l1.1-2.77h.44L38.93,27Z"/><polygon class="cls-1" points="41.47 24.6 40.55 24.6 40.55 27.01 40.16 27.01 40.16 24.6 39.24 24.6 39.24 24.24 41.47 24.24 41.47 24.6"/><polygon class="cls-1" points="44.53 27.01 44.15 27.01 44.15 25.78 42.73 25.78 42.73 27.01 42.35 27.01 42.35 24.24 42.73 24.24 42.73 25.43 44.15 25.43 44.15 24.24 44.53 24.24 44.53 27.01"/><polygon class="cls-1" points="48.24 26.43 48.84 24.24 49.24 24.24 48.45 27.01 48.05 27.01 47.33 24.77 46.62 27.01 46.23 27.01 45.43 24.24 45.83 24.24 46.44 26.41 47.13 24.24 47.53 24.24 48.24 26.43"/><path class="cls-1" d="M51,24.64l-.47,1.24h1ZM51.88,27l-.3-.77H50.35l-.29.77h-.41l1.1-2.77h.44L52.29,27Z"/><polygon class="cls-1" points="53.58 25.83 52.6 24.24 53.06 24.24 53.78 25.48 54.5 24.24 54.94 24.24 53.96 25.83 53.96 27.01 53.58 27.01 53.58 25.83"/><polygon class="cls-1" points="59.59 24.6 58.66 24.6 58.66 27.01 58.28 27.01 58.28 24.6 57.35 24.6 57.35 24.24 59.59 24.24 59.59 24.6"/><path class="cls-1" d="M60.19,25.62a1.53,1.53,0,0,1,.12-.61,1.28,1.28,0,0,1,.32-.46,1.46,1.46,0,0,1,.44-.28,1.39,1.39,0,0,1,1,0,1.46,1.46,0,0,1,.44.28,1.28,1.28,0,0,1,.32.46,1.53,1.53,0,0,1,.12.61,1.47,1.47,0,0,1-.21.78,1.33,1.33,0,0,1-.52.5,1.44,1.44,0,0,1-1.34,0,1.33,1.33,0,0,1-.52-.5,1.47,1.47,0,0,1-.21-.78m.68-.8a1.25,1.25,0,0,0,0,1.61,1,1,0,0,0,1.41,0,1.25,1.25,0,0,0,0-1.61,1,1,0,0,0-1.41,0Z"/><polygon class="cls-1" points="68.02 27.01 67.64 27.01 67.64 25.78 66.22 25.78 66.22 27.01 65.84 27.01 65.84 24.24 66.22 24.24 66.22 25.43 67.64 25.43 67.64 24.24 68.02 24.24 68.02 27.01"/><polygon class="cls-1" points="70.89 27.01 69.21 27.01 69.21 24.24 70.89 24.24 70.89 24.6 69.59 24.6 69.59 25.45 70.77 25.45 70.77 25.81 69.59 25.81 69.59 26.66 70.89 26.66 70.89 27.01"/><path class="cls-1" d="M73,24.64l-.47,1.24h1ZM73.89,27l-.3-.77H72.36l-.29.77h-.41l1.1-2.77h.44L74.3,27Z"/><polygon class="cls-1" points="76.87 27.01 75.18 27.01 75.18 24.24 75.56 24.24 75.56 26.65 76.87 26.65 76.87 27.01"/><polygon class="cls-1" points="79.46 24.6 78.53 24.6 78.53 27.01 78.15 27.01 78.15 24.6 77.22 24.6 77.22 24.24 79.46 24.24 79.46 24.6"/><polygon class="cls-1" points="82.52 27.01 82.13 27.01 82.13 25.78 80.72 25.78 80.72 27.01 80.34 27.01 80.34 24.24 80.72 24.24 80.72 25.43 82.13 25.43 82.13 24.24 82.52 24.24 82.52 27.01"/><path class="cls-1" d="M86.56,24.64l-.47,1.24h1ZM87.47,27l-.3-.77H85.95l-.29.77h-.41l1.1-2.77h.44L87.89,27Z"/><polygon class="cls-1" points="91.04 27.01 90.65 27.01 89.15 24.75 89.15 27.01 88.77 27.01 88.77 24.24 89.28 24.24 90.66 26.37 90.66 24.24 91.04 24.24 91.04 27.01"/><path class="cls-1" d="M93.2,27h-1V24.24h1a1.29,1.29,0,0,1,.94.37,1.36,1.36,0,0,1,.38,1,1.33,1.33,0,0,1-.38,1,1.31,1.31,0,0,1-.94.37m-.58-.34h.57a.91.91,0,0,0,.67-.27,1,1,0,0,0,.27-.77,1.07,1.07,0,0,0-.26-.78.89.89,0,0,0-.67-.27h-.57Z"/><polygon class="cls-1" points="99.9 26.43 100.5 24.24 100.9 24.24 100.11 27.01 99.71 27.01 98.99 24.77 98.27 27.01 97.89 27.01 97.09 24.24 97.48 24.24 98.09 26.41 98.79 24.24 99.19 24.24 99.9 26.43"/><polygon class="cls-1" points="103.48 27.01 101.79 27.01 101.79 24.24 103.48 24.24 103.48 24.6 102.18 24.6 102.18 25.45 103.36 25.45 103.36 25.81 102.18 25.81 102.18 26.66 103.48 26.66 103.48 27.01"/><polygon class="cls-1" points="106.24 27.01 104.55 27.01 104.55 24.24 104.94 24.24 104.94 26.65 106.24 26.65 106.24 27.01"/><polygon class="cls-1" points="108.87 27.01 107.18 27.01 107.18 24.24 107.56 24.24 107.56 26.65 108.87 26.65 108.87 27.01"/><polygon class="cls-1" points="112.09 27.01 111.69 27.01 110.19 24.75 110.19 27.01 109.81 27.01 109.81 24.24 110.32 24.24 111.71 26.37 111.71 24.24 112.09 24.24 112.09 27.01"/><polygon class="cls-1" points="114.97 27.01 113.28 27.01 113.28 24.24 114.97 24.24 114.97 24.6 113.66 24.6 113.66 25.45 114.84 25.45 114.84 25.81 113.66 25.81 113.66 26.66 114.97 26.66 114.97 27.01"/><path class="cls-1" d="M117.81,24.87l-.34.12a.58.58,0,0,0-.18-.33.63.63,0,0,0-.79,0,.42.42,0,0,0-.15.33.38.38,0,0,0,.09.26.48.48,0,0,0,.26.14l.41.09a1,1,0,0,1,.53.28.71.71,0,0,1,.19.5.76.76,0,0,1-.27.58,1,1,0,0,1-.69.24,1,1,0,0,1-.73-.24.93.93,0,0,1-.31-.58l.37-.12a.67.67,0,0,0,.2.42.75.75,0,0,0,.89,0,.4.4,0,0,0,.15-.32.39.39,0,0,0-.11-.27.57.57,0,0,0-.31-.16l-.39-.09a.92.92,0,0,1-.49-.26A.7.7,0,0,1,116,25a.76.76,0,0,1,.27-.58.92.92,0,0,1,.65-.25.93.93,0,0,1,.65.21.9.9,0,0,1,.29.48"/><path class="cls-1" d="M120.61,24.87l-.34.12a.58.58,0,0,0-.18-.33.63.63,0,0,0-.79,0,.42.42,0,0,0-.15.33.38.38,0,0,0,.09.26.48.48,0,0,0,.26.14l.41.09a1,1,0,0,1,.53.28.71.71,0,0,1,.19.5.76.76,0,0,1-.27.58,1,1,0,0,1-.69.24,1,1,0,0,1-.73-.24.93.93,0,0,1-.31-.58l.37-.12a.67.67,0,0,0,.2.42.75.75,0,0,0,.89,0,.4.4,0,0,0,.15-.32.39.39,0,0,0-.11-.27.57.57,0,0,0-.31-.16l-.39-.09a.92.92,0,0,1-.49-.26.7.7,0,0,1-.18-.5.76.76,0,0,1,.27-.58.92.92,0,0,1,.65-.25.93.93,0,0,1,.65.21.9.9,0,0,1,.29.48"/><path class="cls-1" d="M10.19,1.36,0,9.68l2,2L12.22,3.39ZM8.79,16s-.37-4.73-5.53-3.31a4.69,4.69,0,0,1,1.4,1.77,3.15,3.15,0,0,0,3.67,1.91s-1.39-2.18-2.59-2.71A5.87,5.87,0,0,1,8.79,16Zm5.32,4.25a10.46,10.46,0,0,1-1,2.19s3.52-1.34,1.66,3.42C14.75,25.82,20.2,21,14.12,20.21ZM21.3,13c-3.93-1.7-7.72,2.61-10.92,4.06s-6.46-.95-6.46-.95c2.44,3.77,5.37,3.73,7.88,2.6a14.11,14.11,0,0,1-7.71,10s7.45-1.63,10.78-11.95c.86-.69,1.55-1.35,2-1.75A8.77,8.77,0,0,1,21.3,13Zm-7.41,0A1.85,1.85,0,1,1,12,11.25,1.85,1.85,0,0,1,13.89,13.09Zm1.33,6.21s1.85-5.87,8-2.56a6.08,6.08,0,0,0-2.28,1.83c-1.14,1.4-2.56,2.29-5.2,1.34,0,0,2.39-2.35,4.07-2.66A7.61,7.61,0,0,0,15.22,19.31ZM14.78,1.47l-.7.7-.1.1-1,1-.1.1-.1-.1-1-1-.1-.1-.7-.7A.86.86,0,0,1,12.16.25l.7.7.7-.7a.86.86,0,0,1,1.22,1.22ZM11.2,30.71h7.68a7.58,7.58,0,0,0,7.57-7.57V10.26L15.53,1.36l-2,2,10.07,8.22V23.14a4.72,4.72,0,0,1-4.7,4.7H14.06V26a1.44,1.44,0,0,0-1.43-1.43h0A1.44,1.44,0,0,0,11.2,26v4.74Z"/></g></g></svg>