<?xml version="1.0" encoding="UTF-8"?>
<!DOCTYPE svg PUBLIC "-//W3C//DTD SVG 1.1//EN" "http://www.w3.org/Graphics/SVG/1.1/DTD/svg11.dtd">
<!-- Creator: CorelDRAW 2018 (64-Bit) -->
<svg xmlns="http://www.w3.org/2000/svg" xml:space="preserve" width="0.132213in" height="0.176283in" version="1.1" style="shape-rendering:geometricPrecision; text-rendering:geometricPrecision; image-rendering:optimizeQuality; fill-rule:evenodd; clip-rule:evenodd"
viewBox="0 0 7.2 9.6"
 xmlns:xlink="http://www.w3.org/1999/xlink">
 <defs>
  <style type="text/css">
   <![CDATA[
    .fil0 {fill:#0098DB}
   ]]>
  </style>
 </defs>
 <g id="__x0023_Layer_x0020_1">
  <metadata id="CorelCorpID_0Corel-Layer"/>
  <path class="fil0" d="M1.61 3.69l0 -0.19c0,-0.98 0.91,-1.89 1.89,-1.89l0.19 0c0.98,0 1.89,0.91 1.89,1.89l0 0.19c0,0.98 -0.91,1.89 -1.89,1.89l-0.19 0c-0.98,0 -1.89,-0.91 -1.89,-1.89zm1.91 -3.69l0.22 0c0.53,0.02 1.05,0.15 1.53,0.42 0.41,0.23 0.8,0.51 1.09,0.88 0.21,0.27 0.35,0.47 0.5,0.79 0.26,0.53 0.33,1.02 0.33,1.66 0,0.83 -0.45,1.99 -0.87,2.68 -0.08,0.12 -0.14,0.24 -0.22,0.36 -0.34,0.54 -0.96,1.35 -1.42,1.83 -0.06,0.06 -0.08,0.1 -0.14,0.16l-0.58 0.58c-0.14,0.14 -0.24,0.22 -0.34,0.24l-0.08 0c-0.1,-0.02 -0.2,-0.1 -0.35,-0.25 -0.36,-0.36 -0.53,-0.52 -0.86,-0.9 -0.72,-0.81 -1.46,-1.82 -1.88,-2.82 -0.32,-0.74 -0.46,-1.24 -0.46,-2.14 0,-0.33 0.1,-0.81 0.21,-1.1 0.36,-0.9 0.85,-1.5 1.73,-1.98 0.14,-0.07 0.28,-0.15 0.44,-0.2 0.38,-0.13 0.76,-0.2 1.14,-0.21z"/>
 </g>
</svg>
