<svg xmlns="http://www.w3.org/2000/svg" viewBox="0 0 8.94 12.6"><defs><style>.cls-1{fill:none;stroke:#454545;stroke-linecap:round;stroke-linejoin:round;stroke-width:0.48px;}</style></defs><title>Location</title><g id="Layer_2" data-name="Layer 2"><g id="Layer_1-2" data-name="Layer 1"><circle class="cls-1" cx="4.47" cy="4.47" r="1.83"/><path class="cls-1" d="M8.33,6.19A4.23,4.23,0,1,0,.24,4.47,4.21,4.21,0,0,0,.61,6.19"/><path class="cls-1" d="M.61,6.19h0A4.19,4.19,0,0,0,1,6.91,20.32,20.32,0,0,0,2.9,9.54a6.9,6.9,0,0,1,1.32,2.62.26.26,0,0,0,.5,0A6.9,6.9,0,0,1,6,9.54,20.34,20.34,0,0,0,7.92,6.91a4.22,4.22,0,0,0,.41-.72"/></g></g></svg>