<svg xmlns="http://www.w3.org/2000/svg" xmlns:xlink="http://www.w3.org/1999/xlink" viewBox="0 0 48.01 48.07"><defs><style>.cls-1{fill:none;}.cls-2{clip-path:url(#clip-path);}.cls-3{fill:url(#linear-gradient);}</style><clipPath id="clip-path"><path class="cls-1" d="M11.35,46.42h0c.37-1.6.65-3.19,1.13-4.72a3.31,3.31,0,0,1,2.22-2.2c2.12-.64,4.28-1.15,6.42-1.72A4,4,0,0,0,25.37,40a3.64,3.64,0,0,0,2.85-1.81c.18-.3.34-.41.69-.31,1.77.46,3.56.88,5.33,1.35a4.23,4.23,0,0,1,3.24,3.47c.25,1.22.49,2.44.74,3.7H11.35M26.25,38h0a2.48,2.48,0,0,1-2.77.08c-1.21-.7-1.12-1.89-1.07-3h4.75C27.25,36.21,27.33,37.32,26.25,38Zm-7.33-6.21h0A6,6,0,0,1,16,26.69c-.06-2.95,0-5.89,0-8.84a3.07,3.07,0,0,1,0-.31,10.44,10.44,0,0,0,10.32-1c2.58,1.92,3.73,2.16,7.24,1.51V26A6.69,6.69,0,0,1,29,32.84,10.55,10.55,0,0,1,18.92,31.83Zm-.57-17.51h0c.92.14,1.84.36,2.76.52a2.64,2.64,0,0,0,2.9-3,1.46,1.46,0,0,0-1.16-1.18,5.51,5.51,0,0,1-2.49-1.08,3.39,3.39,0,0,1-.66-.7c3.08.1,6.21-.62,9.11.88l0,.2c-.63.22-1.24.47-1.88.65a1.67,1.67,0,0,0-1.21,2.5,2.5,2.5,0,0,0,3,1.64c.73-.13,1.45-.29,2.18-.44a2.31,2.31,0,0,1,2.09.45,1.94,1.94,0,0,1,.55.8.65.65,0,0,1-.48.93A5.38,5.38,0,0,1,27.18,15c-.44-.5-.83-.51-1.41,0a8.59,8.59,0,0,1-9.3.92L16,15.65A2,2,0,0,1,18.35,14.33ZM45.17,9.65h0A1.17,1.17,0,0,1,44,8.43a1.19,1.19,0,0,1,2.37.06A1.18,1.18,0,0,1,45.17,9.65Zm0-4a2.8,2.8,0,0,0,0,5.6,2.8,2.8,0,1,0,0-5.6ZM5.61,31.28a.74.74,0,0,0-.79.71,6.09,6.09,0,0,0,0,.82h0c0,.29,0,.59,0,.88a.76.76,0,0,0,.8.77.73.73,0,0,0,.78-.72,11.69,11.69,0,0,0,0-1.75A.72.72,0,0,0,5.61,31.28Zm0-1.63a.75.75,0,0,0,.79-.71,6.51,6.51,0,0,0,0-.88,6.58,6.58,0,0,0,0-.88.74.74,0,0,0-.79-.71.72.72,0,0,0-.78.71,11.73,11.73,0,0,0,0,1.75A.73.73,0,0,0,5.61,29.65Zm3.3,0a7.5,7.5,0,0,0-.87,0,8.32,8.32,0,0,0-.93,0,.71.71,0,0,0-.68.74.68.68,0,0,0,.62.78,12.45,12.45,0,0,0,1.92,0,.68.68,0,0,0,.62-.78A.71.71,0,0,0,8.91,29.69Zm-4.83,0a16,16,0,0,0-1.75,0,.7.7,0,0,0-.7.72.71.71,0,0,0,.65.82,7,7,0,0,0,.93,0h0a8.32,8.32,0,0,0,.87,0,.72.72,0,0,0,.7-.78A.71.71,0,0,0,4.08,29.68ZM.81,16.08a.8.8,0,0,0-.8.77.79.79,0,0,0,.83.8.78.78,0,1,0,0-1.56ZM44,26.47a.79.79,0,1,0,.78.78A.78.78,0,0,0,44,26.47Zm-17.38.77a.79.79,0,0,0-1.1-1.14c-.73.56-.78.55-1.55,0a.79.79,0,0,0-1.09,1.14,2.46,2.46,0,0,0,3.74,0Zm2.94-4.55a2.41,2.41,0,0,0,1.81-.8.77.77,0,0,0,.06-1.15.76.76,0,0,0-1.14,0c-.63.51-.84.51-1.47,0a.8.8,0,1,0-1.08,1.17A2.39,2.39,0,0,0,29.56,22.7Zm-8.88-2c-.61.5-.83.5-1.47,0a.79.79,0,1,0-1.1,1.15,2.37,2.37,0,0,0,1.8.81,2.41,2.41,0,0,0,1.86-.81.8.8,0,1,0-1.1-1.15ZM38.9,41.88a5.84,5.84,0,0,0-4.7-4.31c-1.8-.43-3.58-.89-5.4-1.34a5.07,5.07,0,0,0,0-.74c-.1-.63.13-.93.76-1.17a8.23,8.23,0,0,0,5.29-5.47,22.41,22.41,0,0,0,.44-2.39,2.29,2.29,0,0,0,2-2.16c.41-2.14.84-4.29,1.35-6.41a15.26,15.26,0,0,0,.31-6.19,40.84,40.84,0,0,1-.53-8.22c0-.82,0-1.64,0-2.46,0-.59-.33-1-.8-1s-.8.36-.81,1a63.65,63.65,0,0,0,.52,10.75A10.15,10.15,0,0,1,37.55,15c-.54,3.13-1.26,6.23-1.93,9.34a2.1,2.1,0,0,1-.25.48l-.16-.05V24c0-2.64,0-5.27,0-7.91a2.86,2.86,0,0,0-.74-2.1,3.84,3.84,0,0,0-3.61-1.21c-.77.13-1.53.3-2.3.45s-1.15-.06-1.38-.93c.16-.05.32-.11.49-.16A6.13,6.13,0,0,0,32.55,7a37.37,37.37,0,0,0,.2-6.3c0-.22-.43-.55-.71-.62a.67.67,0,0,0-.8.6,3.27,3.27,0,0,0,0,.64c0,1.54,0,3.09,0,4.63A4.73,4.73,0,0,1,30.1,8.71a11.26,11.26,0,0,0-6.4-1.44c-1.5,0-3,0-4.51,0-.36,0-.56-.09-.6-.46-.06-.54-.18-1.08-.19-1.62,0-1.41,0-2.81,0-4.22a.82.82,0,0,0-.77-.92.8.8,0,0,0-.81.88c0,1.78-.1,3.57.08,5.33a6.54,6.54,0,0,0,4,5.52,11.56,11.56,0,0,0,1.55.48c-.22.87-.57,1.1-1.37.94l-2.35-.47c-1.86-.38-4.46,1-4.33,3.55s0,5.23,0,7.85v.62l-.18.05a3.4,3.4,0,0,1-.27-.62q-1-4.49-1.88-9a2.5,2.5,0,0,1-.09-.75c.15-1.45.3-2.91.51-4.36A66,66,0,0,0,12.78.92.79.79,0,0,0,12,.06a.8.8,0,0,0-.79.84c0,.45,0,.9,0,1.35,0,1.66.07,3.32,0,5-.12,1.83-.43,3.64-.6,5.47a10.38,10.38,0,0,0,0,2.78c.52,2.86,1.19,5.69,1.74,8.54.24,1.27.66,2.29,2.09,2.46.08.58.12,1.11.23,1.62a8.3,8.3,0,0,0,5.2,6c1.05.46,1,.46,1,1.63,0,.4-.16.52-.51.61-1.74.42-3.49.84-5.22,1.3a5.81,5.81,0,0,0-4.49,4.59c-.33,1.44-.6,2.9-.88,4.36-.23,1.17,0,1.45,1.19,1.45h28c.84,0,1.18-.33,1-1.08C39.62,45.28,39.34,43.56,38.9,41.88Z"/></clipPath><linearGradient id="linear-gradient" x1="-23.08" y1="16.27" x2="53.97" y2="28.97" gradientUnits="userSpaceOnUse"><stop offset="0" stop-color="#88c4ec"/><stop offset="0.5" stop-color="#91afd9"/><stop offset="1" stop-color="#0098db"/></linearGradient></defs><title>Massage Therapy_unselectable</title><g id="Layer_2" data-name="Layer 2"><g id="Layer_1-2" data-name="Layer 1"><g class="cls-2"><rect class="cls-3" width="48.01" height="48.07"/></g></g></g></svg>