<?xml version="1.0" encoding="UTF-8"?>
<!DOCTYPE svg PUBLIC "-//W3C//DTD SVG 1.1//EN" "http://www.w3.org/Graphics/SVG/1.1/DTD/svg11.dtd">
<!-- Creator: CorelDRAW 2018 (64-Bit) -->
<svg xmlns="http://www.w3.org/2000/svg" xml:space="preserve" width="0.282752in" height="0.282752in" version="1.1" style="shape-rendering:geometricPrecision; text-rendering:geometricPrecision; image-rendering:optimizeQuality; fill-rule:evenodd; clip-rule:evenodd"
viewBox="0 0 26.98 26.98"
 xmlns:xlink="http://www.w3.org/1999/xlink">
 <defs>
  <style type="text/css">
   <![CDATA[
    .str0 {stroke:white;stroke-width:0.95;stroke-linejoin:round;stroke-miterlimit:10}
    .fil0 {fill:none;fill-rule:nonzero}
   ]]>
  </style>
 </defs>
 <g id="__x0023_Layer_x0020_1">
  <metadata id="CorelCorpID_0Corel-Layer"/>
  <g id="_1835143677344">
   <path class="fil0 str0" d="M23.34 26.5l-19.7 0m22.86 -3.16c0,1.74 -1.41,3.16 -3.16,3.16m3.16 -22.86l0 19.7m-3.16 -22.86c1.75,0 3.16,1.41 3.16,3.16m-22.86 -3.16l19.7 0m-22.86 3.16c0,-1.75 1.41,-3.16 3.16,-3.16m-3.16 22.86l0 -19.7m3.16 22.86c-1.74,0 -3.16,-1.41 -3.16,-3.16"/>
   <path class="fil0 str0" d="M17.52 11.63l0 -1.75c0,-2.2 -1.78,-3.98 -3.97,-3.98 -2.2,0 -3.97,1.78 -3.97,3.97l0 1.44c0,0.72 0.05,1.42 -0.4,1.98l-2.27 3.1c-0.81,1 -0.1,2.5 1.2,2.5l10.75 0c1.31,0 2.02,-1.54 1.17,-2.54l-1.95 -2.67c-0.49,-0.57 -0.54,-1.3 -0.54,-2.06zm-5.98 7.61c0,1.06 0.86,1.92 1.92,1.92 1.06,0 1.92,-0.86 1.92,-1.92"/>
  </g>
 </g>
</svg>
