<svg xmlns="http://www.w3.org/2000/svg" xmlns:xlink="http://www.w3.org/1999/xlink" viewBox="0 0 46.75 48"><defs><style>.cls-1{fill:url(#linear-gradient);}.cls-2{fill:url(#linear-gradient-2);}.cls-3{fill:url(#linear-gradient-3);}.cls-4{fill:url(#linear-gradient-4);}.cls-5{fill:url(#linear-gradient-5);}.cls-6{fill:url(#linear-gradient-6);}.cls-7{fill:url(#linear-gradient-7);}</style><linearGradient id="linear-gradient" x1="3.24" y1="21.59" x2="7.99" y2="21.59" gradientUnits="userSpaceOnUse"><stop offset="0" stop-color="#88c4ec"/><stop offset="0.5" stop-color="#91afd9"/><stop offset="1" stop-color="#0098db"/></linearGradient><linearGradient id="linear-gradient-2" x1="27.25" y1="2.37" x2="32" y2="2.37" xlink:href="#linear-gradient"/><linearGradient id="linear-gradient-3" x1="6.45" y1="3.18" x2="11.19" y2="3.18" xlink:href="#linear-gradient"/><linearGradient id="linear-gradient-4" x1="0" y1="27.59" x2="46.75" y2="27.59" xlink:href="#linear-gradient"/><linearGradient id="linear-gradient-5" x1="23.26" y1="11.18" x2="38.39" y2="11.18" xlink:href="#linear-gradient"/><linearGradient id="linear-gradient-6" x1="34.43" y1="25.6" x2="39.19" y2="25.6" xlink:href="#linear-gradient"/><linearGradient id="linear-gradient-7" x1="40.04" y1="11.18" x2="41.59" y2="11.18" xlink:href="#linear-gradient"/></defs><title>Physiotherapy_unselectable</title><g id="Layer_2" data-name="Layer 2"><g id="Layer_1-2" data-name="Layer 1"><path class="cls-1" d="M3.59,22.39h.87a.35.35,0,0,1,.35.35v.85a.35.35,0,0,0,.35.35h.89a.35.35,0,0,0,.35-.35v-.88a.35.35,0,0,1,.35-.35h.86A.35.35,0,0,0,8,22v-.89a.35.35,0,0,0-.35-.35H6.77a.35.35,0,0,1-.35-.35v-.85a.35.35,0,0,0-.35-.35H5.15a.35.35,0,0,0-.35.35v.87a.35.35,0,0,1-.35.35H3.59a.35.35,0,0,0-.35.35V22A.35.35,0,0,0,3.59,22.39Z"/><path class="cls-2" d="M27.6,3.17h.86a.35.35,0,0,1,.35.35v.86a.35.35,0,0,0,.35.35h.91a.35.35,0,0,0,.35-.35V3.51a.35.35,0,0,1,.35-.35h.86A.35.35,0,0,0,32,2.81V1.92a.35.35,0,0,0-.35-.35h-.89a.35.35,0,0,1-.35-.35V.35A.35.35,0,0,0,30.05,0h-.89a.35.35,0,0,0-.35.35v.89a.35.35,0,0,1-.35.35H27.6a.35.35,0,0,0-.35.35v.87A.35.35,0,0,0,27.6,3.17Z"/><path class="cls-3" d="M6.8,4h.88A.35.35,0,0,1,8,4.35v.85a.35.35,0,0,0,.35.35h.89a.35.35,0,0,0,.35-.35V4.33A.35.35,0,0,1,10,4h.86a.35.35,0,0,0,.35-.35V2.74a.35.35,0,0,0-.35-.35H10A.35.35,0,0,1,9.61,2V1.17A.35.35,0,0,0,9.26.81H8.36A.35.35,0,0,0,8,1.17V2a.35.35,0,0,1-.35.35H6.8a.35.35,0,0,0-.35.35v.9A.35.35,0,0,0,6.8,4Z"/><path class="cls-4" d="M46.75,17.44l-.54-1.07a.36.36,0,0,0-.46-.17l-.08,0a21.68,21.68,0,0,1-12.78,1.84c-2.15-.36-4.3-.77-6.44-1.16a1.19,1.19,0,0,0-1.49,1.49c.2,1.08.4,2.16.6,3.24s.41,2.3.62,3.46a.36.36,0,0,1-.35.42H16.24a.36.36,0,0,1-.35-.32l-.48-4.09q-.26-2.21-.52-4.42a8.93,8.93,0,0,1,0-3,6.14,6.14,0,0,1,6.1-5H45.14a.45.45,0,0,0,.45-.45v-.7a.45.45,0,0,0-.45-.45H21a9.4,9.4,0,0,0-1.35.1,7.75,7.75,0,0,0-6.47,8.17c.22,2.22.51,4.44.77,6.65.13,1.14.26,2.28.4,3.45l-.32,0c-1,0-1.17.22-1.17,1.2q0,3.14,0,6.28v.16a.36.36,0,0,1-.36.36H2.67c-.77,0-1.53,0-2.3,0-.12,0-.34.14-.35.23,0,.33,0,.65,0,1a.36.36,0,0,0,.36.35H2.81a.36.36,0,0,1,.36.36V46a.36.36,0,0,1-.36.36H.38a.36.36,0,0,0-.36.36v.87A.36.36,0,0,0,.38,48H35.65a1,1,0,0,0,.42,0c.24-.12.54-.25.64-.46a.52.52,0,0,1,.56-.33h6.36a.36.36,0,0,0,.36-.36v-.9a.36.36,0,0,0-.36-.36H37.21a.36.36,0,0,1-.36-.36V37.12a.36.36,0,0,1,.36-.36h6.44a.36.36,0,0,0,.36-.36v-.87a.36.36,0,0,0-.36-.36H37.18a.36.36,0,0,1-.36-.34v0c0-1.07-.2-1.24-1.27-1.24H30a.36.36,0,0,1-.36-.36V33q0-3.21,0-6.42c0-.74-.27-1-1-1h-.4a.36.36,0,0,1-.35-.3l-1.2-6.62.21,0a50.93,50.93,0,0,0,8.71,1.24,23.34,23.34,0,0,0,11.11-2.37S46.71,17.49,46.75,17.44ZM6.39,46a.36.36,0,0,1-.36.36H5.21A.36.36,0,0,1,4.86,46V35.57a.36.36,0,0,1,.36-.36H6a.36.36,0,0,1,.36.36ZM29.6,37.78c0-.73,0-1.46,0-2.21a.36.36,0,0,1,.36-.36h4.88a.36.36,0,0,1,.36.36V46a.36.36,0,0,1-.36.36H25.92a.36.36,0,0,1-.22-.64l.23-.19A10.14,10.14,0,0,0,29.6,37.78Zm-2-10.58a.36.36,0,0,1,.36.35s0,.07,0,.11c0,3.3,0,6.59,0,9.89a8.74,8.74,0,0,1-7.5,8.75,8,8,0,0,1-1.24.09H8.4A.36.36,0,0,1,8,46V35.53a.36.36,0,0,1,.36-.36h4.87c.91,0,1.14-.23,1.14-1.13q0-3.16,0-6.33v-.17a.36.36,0,0,1,.36-.36Z"/><rect class="cls-5" x="23.26" y="10.41" width="15.14" height="1.54" rx="0.35" ry="0.35"/><path class="cls-6" d="M38,26.37h.87a.35.35,0,0,0,.35-.35v-.88a.35.35,0,0,0-.35-.35h-.89a.35.35,0,0,1-.35-.35v-.87a.35.35,0,0,0-.35-.35h-.89a.35.35,0,0,0-.35.35v.88a.35.35,0,0,1-.35.35h-.86a.35.35,0,0,0-.35.35V26a.35.35,0,0,0,.35.35h.89a.35.35,0,0,1,.35.35v.89a.35.35,0,0,0,.36.35c.31,0,.59,0,.88,0s.36-.1.35-.36,0-.59,0-.92A.35.35,0,0,1,38,26.37Z"/><rect class="cls-7" x="40.04" y="10.42" width="1.55" height="1.53" rx="0.35" ry="0.35"/></g></g></svg>