<svg xmlns="http://www.w3.org/2000/svg" viewBox="0 0 46.75 48"><defs><style>.cls-1{fill:#fff;}</style></defs><title>Physiotherapy_Selectable</title><g id="Layer_2" data-name="Layer 2"><g id="Layer_1-2" data-name="Layer 1"><path class="cls-1" d="M27.65,27.2h0a.36.36,0,0,1,.36.35s0,.07,0,.11c0,3.3,0,6.59,0,9.89a8.74,8.74,0,0,1-7.5,8.75,8,8,0,0,1-1.24.09H8.4A.36.36,0,0,1,8,46V35.53a.36.36,0,0,1,.36-.36h4.87c.91,0,1.14-.23,1.14-1.13q0-3.16,0-6.33v-.17a.36.36,0,0,1,.36-.36Zm2,10.58h0c0-.73,0-1.46,0-2.21a.36.36,0,0,1,.36-.36h4.88a.36.36,0,0,1,.36.36V46a.36.36,0,0,1-.36.36H25.92a.36.36,0,0,1-.22-.64l.23-.19A10.14,10.14,0,0,0,29.6,37.78ZM6,46.37H5.21A.36.36,0,0,1,4.86,46V35.57a.36.36,0,0,1,.36-.36H6a.36.36,0,0,1,.36.36V46A.36.36,0,0,1,6,46.37ZM23.61,12H38a.35.35,0,0,0,.35-.35v-.84a.35.35,0,0,0-.35-.35H23.61a.35.35,0,0,0-.35.35v.84A.35.35,0,0,0,23.61,12ZM39.19,26v-.88a.35.35,0,0,0-.35-.35h-.89a.35.35,0,0,1-.35-.35v-.87a.35.35,0,0,0-.35-.35h-.89a.35.35,0,0,0-.35.35v.88a.35.35,0,0,1-.35.35h-.86a.35.35,0,0,0-.35.35V26a.35.35,0,0,0,.35.35h.89a.35.35,0,0,1,.35.35v.89a.35.35,0,0,0,.36.35c.31,0,.59,0,.88,0s.36-.1.35-.36,0-.59,0-.92a.35.35,0,0,1,.35-.35h.87A.35.35,0,0,0,39.19,26ZM8.38,5.55h.89a.35.35,0,0,0,.35-.35V4.33A.35.35,0,0,1,10,4h.86a.35.35,0,0,0,.35-.35V2.74a.35.35,0,0,0-.35-.35H10A.35.35,0,0,1,9.61,2V1.17A.35.35,0,0,0,9.26.81H8.36A.35.35,0,0,0,8,1.17V2a.35.35,0,0,1-.35.35H6.8a.35.35,0,0,0-.35.35v.9A.35.35,0,0,0,6.8,4h.88A.35.35,0,0,1,8,4.35v.85A.35.35,0,0,0,8.38,5.55Zm20.79-.82h.91a.35.35,0,0,0,.35-.35V3.51a.35.35,0,0,1,.35-.35h.86A.35.35,0,0,0,32,2.81V1.92a.35.35,0,0,0-.35-.35h-.89a.35.35,0,0,1-.35-.35V.35A.35.35,0,0,0,30.05,0h-.89a.35.35,0,0,0-.35.35v.89a.35.35,0,0,1-.35.35H27.6a.35.35,0,0,0-.35.35v.87a.35.35,0,0,0,.35.35h.86a.35.35,0,0,1,.35.35v.86A.35.35,0,0,0,29.17,4.73ZM5.17,24h.89a.35.35,0,0,0,.35-.35v-.88a.35.35,0,0,1,.35-.35h.86A.35.35,0,0,0,8,22v-.89a.35.35,0,0,0-.35-.35H6.77a.35.35,0,0,1-.35-.35v-.85a.35.35,0,0,0-.35-.35H5.15a.35.35,0,0,0-.35.35v.87a.35.35,0,0,1-.35.35H3.59a.35.35,0,0,0-.35.35V22a.35.35,0,0,0,.35.35h.87a.35.35,0,0,1,.35.35v.85A.35.35,0,0,0,5.17,24ZM41.59,11.59v-.82a.35.35,0,0,0-.35-.35h-.85a.35.35,0,0,0-.35.35v.82a.35.35,0,0,0,.35.35h.85A.35.35,0,0,0,41.59,11.59Zm4.61,4.78a.36.36,0,0,0-.46-.17l-.08,0a21.68,21.68,0,0,1-12.78,1.84c-2.15-.36-4.3-.77-6.44-1.16a1.19,1.19,0,0,0-1.49,1.49c.2,1.08.4,2.16.6,3.24s.41,2.3.62,3.46a.36.36,0,0,1-.35.42H16.24a.36.36,0,0,1-.35-.32l-.48-4.09q-.26-2.21-.52-4.42a8.94,8.94,0,0,1,0-3,6.14,6.14,0,0,1,6.1-5H45.14a.45.45,0,0,0,.45-.45v-.7a.45.45,0,0,0-.45-.45H21a9.39,9.39,0,0,0-1.35.1,7.76,7.76,0,0,0-6.47,8.17c.22,2.22.51,4.44.77,6.65.13,1.14.26,2.28.4,3.45l-.32,0c-1,0-1.17.22-1.17,1.2q0,3.14,0,6.28v.16a.36.36,0,0,1-.36.36H2.67c-.77,0-1.53,0-2.3,0-.12,0-.34.14-.35.23,0,.33,0,.65,0,1a.36.36,0,0,0,.36.35H2.81a.36.36,0,0,1,.36.36V46a.36.36,0,0,1-.36.36H.38a.36.36,0,0,0-.36.36v.87A.36.36,0,0,0,.38,48H35.65a1,1,0,0,0,.42,0c.24-.12.54-.25.64-.46a.52.52,0,0,1,.56-.33h6.36a.36.36,0,0,0,.36-.36v-.9a.36.36,0,0,0-.36-.36H37.21a.36.36,0,0,1-.36-.36V37.12a.36.36,0,0,1,.36-.36h6.44a.36.36,0,0,0,.36-.36v-.87a.36.36,0,0,0-.36-.36H37.18a.36.36,0,0,1-.36-.34v0c0-1.07-.2-1.24-1.27-1.24H30a.36.36,0,0,1-.36-.36V33q0-3.21,0-6.42c0-.74-.27-1-1-1h-.4a.36.36,0,0,1-.35-.3l-1.2-6.62.21,0a50.93,50.93,0,0,0,8.71,1.24,23.34,23.34,0,0,0,11.11-2.37s.06-.06.1-.11Z"/></g></g></svg>