<svg xmlns="http://www.w3.org/2000/svg" viewBox="0 0 21.73 21.73"><defs><style>.cls-1{fill:none;stroke:#fff;stroke-miterlimit:10;stroke-width:0.96px;}</style></defs><title>Profile</title><g id="Layer_2" data-name="Layer 2"><g id="Layer_1-2" data-name="Layer 1"><path class="cls-1" d="M17.67,17.78a6.27,6.27,0,0,0-5.37-6,3.5,3.5,0,0,0,2.16-3.2,3.57,3.57,0,0,0-3.62-3.5,3.57,3.57,0,0,0-3.63,3.5,3.5,3.5,0,0,0,2.16,3.2c-2.69.51-5.32,3-5.32,6"/><line class="cls-1" x1="4.06" y1="17.78" x2="4.06" y2="18.7"/><path class="cls-1" d="M4.06,18.7a9.75,9.75,0,0,0,6.8,2.54,9.75,9.75,0,0,0,6.8-2.54"/><line class="cls-1" x1="17.67" y1="18.71" x2="17.67" y2="17.78"/><circle class="cls-1" cx="10.86" cy="10.86" r="10.38"/></g></g></svg>