<?xml version="1.0" encoding="UTF-8"?>
<!DOCTYPE svg PUBLIC "-//W3C//DTD SVG 1.1//EN" "http://www.w3.org/Graphics/SVG/1.1/DTD/svg11.dtd">
<!-- Creator: CorelDRAW 2018 (64-Bit) -->
<svg xmlns="http://www.w3.org/2000/svg" xml:space="preserve" width="0.355087in" height="0.355087in" version="1.1" style="shape-rendering:geometricPrecision; text-rendering:geometricPrecision; image-rendering:optimizeQuality; fill-rule:evenodd; clip-rule:evenodd"
viewBox="0 0 43.73 43.73"
 xmlns:xlink="http://www.w3.org/1999/xlink">
 <defs>
  <style type="text/css">
   <![CDATA[
    .fil1 {fill:#428DFE}
    .fil6 {fill:#7FACFA}
    .fil3 {fill:#A3C2F7}
    .fil2 {fill:#A4C2F7}
    .fil7 {fill:#CAD9FC}
    .fil5 {fill:#E7ECFC}
    .fil0 {fill:#E8EDFC}
    .fil4 {fill:#FEFEFE}
   ]]>
  </style>
 </defs>
 <g id="__x0023_Layer_x0020_1">
  <metadata id="CorelCorpID_0Corel-Layer"/>
  <g id="_1835137688720">
   <path class="fil0" d="M24.37 41.55c0.24,-0.19 0.91,-0.28 1.26,-0.45 1.06,-0.49 10.5,-6.32 11.93,-7.21 1,-0.62 2.64,-1.41 3.03,-2.18 0.15,-0.31 0.45,-1.14 0.06,-1.36 -0.51,-0.01 -7.22,2.34 -8.29,2.69 -1.18,0.39 -5.22,1.88 -6.32,1.92 -0.92,0.04 -1.89,0.02 -2.82,0.02 -2.57,0 -5.13,-0.38 -7.17,1.06 -0.31,0.22 -0.49,0.46 -0.98,0.29 -0.28,-0.1 -0.56,-0.45 -0.4,-0.9 0.26,-0.73 2.57,-1.66 3.71,-1.83 1.51,-0.22 3.88,-0.08 5.48,-0.08 1.17,-1.42 -0.3,-3.07 -1.49,-3.48 -1.17,-0.4 -4.1,-0.04 -5.6,-0.22 -1.86,-0.22 -2.89,-0.92 -4.03,-1.77 -1.43,-1.06 -2.66,-1.09 -4.75,-1.09l0 14.58 16.36 0z"/>
   <path class="fil1" d="M24.37 41.55l-16.36 0 0 -14.58c2.09,0 3.32,0.03 4.75,1.09 1.14,0.85 2.17,1.55 4.03,1.77 1.49,0.18 4.43,-0.18 5.6,0.22 1.18,0.41 2.66,2.05 1.49,3.48 -1.6,0.01 -3.97,-0.14 -5.48,0.08 -1.14,0.17 -3.45,1.1 -3.71,1.83 -0.16,0.45 0.12,0.8 0.4,0.9 0.5,0.17 0.68,-0.07 0.98,-0.29 2.04,-1.44 4.6,-1.06 7.17,-1.06 0.93,0 1.89,0.02 2.82,-0.02 1.1,-0.05 5.13,-1.53 6.32,-1.92 1.08,-0.36 7.78,-2.71 8.29,-2.69l0.34 -0.11c0.13,-0.01 0.33,0.04 0.43,0.07 0.75,0.26 1.05,1.13 0.65,1.85 -0.28,0.52 -6.37,4.06 -7.12,4.5 -2.15,1.25 -5.22,3.3 -7.17,4.36 -1.04,0.56 -2.11,0.54 -3.42,0.52zm19.36 -10.31l0 0.54c-0.05,0.48 -0.23,0.97 -0.56,1.41 -0.59,0.79 -3.29,2.18 -4.38,2.88 -1.09,0.7 -10.04,6.2 -10.95,6.56 -1.46,0.58 -3.36,0.43 -5.38,0.43 -3.9,0 -7.8,0 -11.7,0 -0.95,0 -2.07,-0.06 -3,-0.01 -0.55,0.03 -0.55,0.3 -0.97,0.49 -0.33,0.15 -0.61,0.19 -1.02,0.2l-3.48 0c-0.44,-0.02 -0.79,-0.07 -0.96,-0.14 -1.18,-0.52 -1.32,-1.35 -1.34,-2.35l0 -0.67 0 -8.73c0.3,-0.4 0.67,-0.75 1.2,-0.33 0.39,0.31 0.26,1.04 0.26,1.54l0 7.26c-0,1.9 -0.23,1.9 1.62,1.97 3.73,-0.11 3.49,0.64 3.49,-2.48l0 -11.87c0,-3.03 0.25,-2.34 -3.49,-2.43 -0.39,0.01 -0.87,-0.07 -1.22,0.1 -0.64,0.3 -0.14,1.39 -1.17,1.36 -0.44,-0.01 -0.5,-0.24 -0.69,-0.5l0 -0.03c0,-0.61 0.01,-0.84 0.24,-1.25 0.7,-1.26 1.85,-1.18 3.18,-1.18 1.32,0 4.02,-0.35 4.44,1.45 5.51,0 5.37,1.6 7.38,2.44 3.16,1.32 8.15,-1.03 10.1,2.88 0.33,0.67 0.59,1.89 0.2,2.71 1.1,0 1.59,-0.26 2.44,-0.55l6.54 -2.17c1.5,-0.5 2.92,-0.99 4.41,-1.48 0.7,-0.23 1.39,-0.58 2.4,-0.5 0.77,0.06 1.47,0.56 1.85,1.06 0.31,0.41 0.5,0.89 0.55,1.39z"/>
   <path class="fil2" d="M25.49 14.56c0.09,-0.91 -0.12,-2.47 0.07,-3.26 0.38,-1.64 3.32,-1.07 3.64,-0.87 1.2,0.75 0.47,2.59 0.71,4.15 3.25,0 4.34,-0.51 4.34,2.25 0,2.66 -1.31,2.12 -4.37,2.12 0,3.22 0.51,4.37 -2.21,4.37 -2.7,0 -2.16,-1.29 -2.16,-4.34 -2.33,-0.36 -4.37,1.05 -4.37,-2.24 -0,-3.09 1.79,-1.93 4.35,-2.18zm-0.82 11.22c0.18,0.16 0.41,0.17 0.67,0.21 0.23,0.04 0.5,0.09 0.73,0.13 1.07,0.16 2.13,0.16 3.2,0.01 0.5,-0.07 0.99,-0.23 1.42,-0.29 0.07,-0.08 1.76,-1.09 2.69,-2.01 2.83,-2.78 3.88,-6.28 2.23,-10.17 -0.91,-2.14 -3.91,-6.34 -5.73,-8.28 -0.34,-0.36 -2.07,-2.18 -2.1,-2.46 -0.69,0.54 -0.7,0.75 -1.19,1.22 -0.28,0.27 -0.33,0.38 -0.56,0.64 -0.23,0.26 -0.32,0.33 -0.52,0.59l-1.1 1.29c-0.35,0.4 -0.69,0.86 -1.02,1.28 -1.22,1.58 -2.7,3.61 -3.64,5.76 -1.22,2.79 -1.06,4.9 0.26,7.52 0.75,1.48 2.08,2.83 3.36,3.73l1.28 0.83z"/>
   <path class="fil1" d="M30.7 25.84c-0.44,0.06 -0.92,0.22 -1.42,0.29 -1.07,0.15 -2.13,0.15 -3.2,-0.01 -0.23,-0.03 -0.5,-0.09 -0.73,-0.13 -0.26,-0.04 -0.49,-0.05 -0.67,-0.21 -1,-0.07 -2.86,-1.22 -3.48,-1.7 -1.03,-0.81 -1.72,-1.56 -2.46,-2.75 -3.25,-5.18 0.79,-10.11 4.06,-14.16 1.07,-1.32 2.01,-2.29 3.03,-3.46 0.68,-0.78 0.7,-0.71 1.26,-1.3 0.22,-0.23 0.38,-0.47 0.69,-0.61l0.5 0.59c0.35,0.19 0.94,0.99 1.28,1.29l1.19 1.29c1.89,2.32 2.47,2.83 4.44,5.64 1.44,2.06 2.97,4.53 2.65,7.26 -0.47,4.08 -3.41,6.73 -7.14,7.98zm8.67 -8.67c0,-3.63 -2.65,-7.04 -4.71,-9.81l-1.57 -1.93c-0.65,-0.83 -4.77,-5.43 -5.25,-5.43 -0.71,0 -0.92,0.45 -1.43,0.96 -0.4,0.4 -0.75,0.75 -1.15,1.15l-4.29 4.94c-1.83,2.33 -4.41,5.88 -4.88,8.87 -0.43,2.73 0.8,5.48 1.95,7.03 1.35,1.82 2.98,3.04 5.2,3.94 3.65,1.47 7.64,0.94 10.98,-1.04l1.93 -1.49c1.74,-1.66 3.22,-4.59 3.22,-7.2z"/>
   <path class="fil1" d="M26.97 11.66l1.46 0.03c0,1.95 -0.54,4.35 1.64,4.35l2.73 0 -0.02 1.46c-4.71,0 -4.36,-0.36 -4.36,4.36l-1.46 0.01c0,-4.83 0.34,-4.38 -4.35,-4.37l-0.02 -1.46c2.4,0 4.38,0.44 4.38,-1.69l0 -2.69zm-1.48 2.9c-2.56,0.26 -4.35,-0.91 -4.35,2.18 0,3.29 2.05,1.88 4.37,2.24 0,3.05 -0.54,4.34 2.16,4.34 2.72,-0 2.21,-1.16 2.21,-4.37 3.06,0 4.38,0.54 4.37,-2.12 -0,-2.76 -1.09,-2.25 -4.34,-2.25 -0.24,-1.55 0.49,-3.4 -0.71,-4.15 -0.32,-0.2 -3.26,-0.77 -3.64,0.87 -0.19,0.79 0.02,2.35 -0.07,3.26z"/>
   <path class="fil3" d="M3.07 42.28c3.73,-0.11 3.49,0.64 3.49,-2.48l0 -11.87c0,-3.03 0.25,-2.34 -3.49,-2.43 -0.36,1.3 -0.16,6.64 -0.16,8.41 0,1.42 0,2.85 0,4.27 0,1.35 -0.13,2.87 0.16,4.1z"/>
   <path class="fil4" d="M24.67 25.78l-1.28 -0.83c-1.28,-0.9 -2.62,-2.25 -3.36,-3.73 -1.32,-2.62 -1.48,-4.73 -0.26,-7.52 0.94,-2.14 2.42,-4.18 3.64,-5.76 0.33,-0.43 0.67,-0.88 1.02,-1.28l1.1 -1.29c0.2,-0.26 0.29,-0.33 0.52,-0.59 0.23,-0.26 0.27,-0.37 0.56,-0.64 0.49,-0.47 0.49,-0.68 1.19,-1.22l0.48 -0.54 -0.5 -0.59c-0.31,0.14 -0.47,0.38 -0.69,0.61 -0.56,0.59 -0.58,0.52 -1.26,1.3 -1.02,1.17 -1.96,2.14 -3.03,3.46 -3.27,4.05 -7.31,8.98 -4.06,14.16 0.74,1.19 1.43,1.94 2.46,2.75 0.62,0.48 2.47,1.63 3.48,1.7z"/>
   <path class="fil5" d="M26.97 14.35c0,2.13 -1.97,1.69 -4.38,1.69l0.02 1.46c4.69,-0 4.35,-0.46 4.35,4.37l1.46 -0.01c-0,-4.72 -0.36,-4.36 4.36,-4.36l0.02 -1.46 -2.73 0c-2.18,0 -1.64,-2.39 -1.64,-4.35l-1.46 -0.03 0 2.69z"/>
   <path class="fil6" d="M27.8 2.92c0.03,0.28 1.76,2.1 2.1,2.46 1.82,1.94 4.82,6.14 5.73,8.28 1.65,3.89 0.6,7.39 -2.23,10.17 -0.93,0.92 -2.63,1.92 -2.69,2.01 3.72,-1.25 6.67,-3.9 7.14,-7.98 0.31,-2.73 -1.21,-5.2 -2.65,-7.26 -1.97,-2.82 -2.55,-3.32 -4.44,-5.64l-1.19 -1.29c-0.34,-0.3 -0.93,-1.1 -1.28,-1.29l-0.48 0.54z"/>
   <path class="fil4" d="M-0 26.46l0 2.47c0.58,-0.82 1.48,-0.51 1.45,0.27 -0.02,0.4 -0.29,0.65 -0.68,0.67 -0.49,0.02 -0.56,-0.23 -0.76,-0.49l0 2.46c0.3,-0.4 0.67,-0.75 1.2,-0.33 0.39,0.31 0.26,1.04 0.26,1.54l0 7.26c-0,1.9 -0.23,1.9 1.62,1.97 -0.29,-1.23 -0.16,-2.76 -0.16,-4.1 0,-1.42 0,-2.85 0,-4.27 0,-1.77 -0.21,-7.11 0.16,-8.41 -0.39,0.01 -0.87,-0.07 -1.22,0.1 -0.64,0.3 -0.14,1.39 -1.17,1.36 -0.44,-0.01 -0.5,-0.24 -0.69,-0.5z"/>
   <path class="fil7" d="M24.37 41.55c1.31,0.03 2.37,0.05 3.42,-0.52 1.95,-1.05 5.03,-3.11 7.17,-4.36 0.75,-0.44 6.84,-3.98 7.12,-4.5 0.39,-0.73 0.09,-1.6 -0.65,-1.85 -0.1,-0.03 -0.3,-0.08 -0.43,-0.07l-0.34 0.11c0.39,0.22 0.09,1.05 -0.06,1.36 -0.39,0.77 -2.03,1.56 -3.03,2.18 -1.42,0.88 -10.87,6.71 -11.93,7.21 -0.35,0.16 -1.02,0.26 -1.26,0.45z"/>
   <path class="fil1" d="M-0 28.93l0 0.45c0.2,0.25 0.28,0.5 0.76,0.49 0.4,-0.01 0.67,-0.26 0.68,-0.67 0.03,-0.79 -0.87,-1.1 -1.45,-0.27z"/>
  </g>
 </g>
</svg>
